<mxfile modified="11/27/2024 01:59:58"><diagram id="pd651ac54c31b41c7a7ebc3136bfb77d7_274608346" name="EntidadesSQL">﻿<mxGraphModel grid="1" gridSize="10" guides="1" tooltips="1" connect="1" arrows="1" shadow="1"><root><mxCell id="0" /><mxCell id="1" parent="0" /><mxCell id="e66a582ab5e7497bb45fe02886b1d346" parent="1" value="" style="startArrow=diamondThin;startFill=0;endArrow=none;endFill=0;html=1;strokeColor=#555555;strokeWidth=2;shadow=1;fillColor=#F2F2F2;swimlaneFillColor=#F2F2F2;" edge="1" source="1e81bb0d15054bd8a7507bb07f80392a" target="f8ae2acd141746508e5332fca5aef64b"><mxGeometry x="977" y="2673" width="436" height="220" as="geometry"><mxPoint x="1017" y="2673" as="sourcePoint" /><mxPoint x="1372" y="2892" as="targetPoint" /><Array as="points"><mxPoint x="1017" y="2782.5" /><mxPoint x="1372" y="2782.5" /></Array></mxGeometry></mxCell><mxCell id="974ca8e1ad39476eba6c6f0500fd1709" parent="1" value="" style="startArrow=diamondThin;startFill=0;endArrow=none;endFill=0;html=1;strokeColor=#555555;strokeWidth=2;shadow=1;fillColor=#F2F2F2;swimlaneFillColor=#F2F2F2;" edge="1" source="1e81bb0d15054bd8a7507bb07f80392a" target="abbf837c4ca94729832c296eaaa148e9"><mxGeometry x="508" y="2157" width="334" height="58.913086" as="geometry"><mxPoint x="841" y="2182" as="sourcePoint" /><mxPoint x="508" y="2182" as="targetPoint" /></mxGeometry></mxCell><mxCell id="55857d682b0a4d639a96d1726b15a709" parent="1" value="" style="endArrow=block;startArrow=none;endFill=0;startFill=0;html=1;strokeColor=#555555;strokeWidth=2;shadow=1;fillColor=#F2F2F2;swimlaneFillColor=#F2F2F2;" edge="1" source="a4c374ca4b46495ab580e38f9ce8afc9" target="abbf837c4ca94729832c296eaaa148e9"><mxGeometry x="318" y="2730" width="424" height="354" as="geometry"><mxPoint x="732" y="3074" as="sourcePoint" /><mxPoint x="328" y="2740" as="targetPoint" /><Array as="points"><mxPoint x="732" y="2907" /><mxPoint x="328" y="2907" /></Array></mxGeometry></mxCell><mxCell id="d781285639594039b8818031d21a3ee2" parent="1" value="" style="startArrow=diamondThin;startFill=0;endArrow=none;endFill=0;html=1;strokeColor=#555555;strokeWidth=2;shadow=1;fillColor=#F2F2F2;swimlaneFillColor=#F2F2F2;" edge="1" source="1e81bb0d15054bd8a7507bb07f80392a" target="9d3372cba18b4a67a85f2d62a4aa670d"><mxGeometry x="1193" y="2138" width="695.0216" height="58.913086" as="geometry"><mxPoint x="1193" y="2163" as="sourcePoint" /><mxPoint x="1887" y="2164" as="targetPoint" /></mxGeometry></mxCell><mxCell id="83fb23bcaa894b1c9d6414a362bf0a3f" parent="1" value="Estado" style="swimlane;childLayout=stackLayout;horizontal=1;horizontalStack=0;resizeParent=1;resizeParentMax=0;resizeLast=0;collapsible=1;html=1;strokeColor=#555555;strokeWidth=2;shadow=1;fillColor=#F2F2F2;swimlaneFillColor=#F2F2F2;" vertex="1"><mxGeometry x="-470" y="1360" width="315" height="418" as="geometry" /></mxCell><mxCell id="a7869f3a0af204207a1979708937b48ee244" parent="83fb23bcaa894b1c9d6414a362bf0a3f" value="- serialVersionUID: long = 1L" style="text;portConstraint=eastwest;overflow=hidden;rotatable=0;" vertex="1"><mxGeometry y="30.826172" width="309" height="19" as="geometry" /></mxCell><mxCell id="ac8eb6649896c42ca801a85e4b2fb9cce244" parent="83fb23bcaa894b1c9d6414a362bf0a3f" value="- id: Integer" style="text;portConstraint=eastwest;overflow=hidden;rotatable=0;" vertex="1"><mxGeometry y="49.82617" width="309" height="19" as="geometry" /></mxCell><mxCell id="aa1a0f42652be4b659fe7f2b8d8e7ee0d244" parent="83fb23bcaa894b1c9d6414a362bf0a3f" value="- nombre: String" style="text;portConstraint=eastwest;overflow=hidden;rotatable=0;" vertex="1"><mxGeometry y="68.82617" width="309" height="19" as="geometry" /></mxCell><mxCell id="a3b8c70ad3b2b4ec6946d9ddd740ce51a244" parent="83fb23bcaa894b1c9d6414a362bf0a3f" value="- municipioCollection: Collection&lt;Municipio&gt;" style="text;portConstraint=eastwest;overflow=hidden;rotatable=0;" vertex="1"><mxGeometry y="87.82617" width="309" height="19" as="geometry" /></mxCell><mxCell id="o741b8df3386746d6806ac6bf1046751a245" parent="83fb23bcaa894b1c9d6414a362bf0a3f" value="+ «create» Estado ()" style="text;portConstraint=eastwest;overflow=hidden;rotatable=0;" vertex="1"><mxGeometry y="112.82617" width="309" height="19" as="geometry" /></mxCell><mxCell id="o8e148cf68baf4757a95f773409292989245" parent="83fb23bcaa894b1c9d6414a362bf0a3f" value="+ «create» Estado (nombre : String)" style="text;portConstraint=eastwest;overflow=hidden;rotatable=0;" vertex="1"><mxGeometry y="131.82617" width="309" height="19" as="geometry" /></mxCell><mxCell id="o4125ef7b7f5d4a299501b6ab645a12ea245" parent="83fb23bcaa894b1c9d6414a362bf0a3f" value="+ «create» Estado (id : Integer)" style="text;portConstraint=eastwest;overflow=hidden;rotatable=0;" vertex="1"><mxGeometry y="150.82617" width="309" height="19" as="geometry" /></mxCell><mxCell id="o5d24f6d48b4f4455a1177150c3095c2b245" parent="83fb23bcaa894b1c9d6414a362bf0a3f" value="+ «create» Estado (id : Integer, nombre : String)" style="text;portConstraint=eastwest;overflow=hidden;rotatable=0;" vertex="1"><mxGeometry y="169.82617" width="309" height="19" as="geometry" /></mxCell><mxCell id="o12b82bb483b44ee6beba7feee169824d245" parent="83fb23bcaa894b1c9d6414a362bf0a3f" value="+ getId (): Integer" style="text;portConstraint=eastwest;overflow=hidden;rotatable=0;" vertex="1"><mxGeometry y="188.82617" width="309" height="19" as="geometry" /></mxCell><mxCell id="o32d028ac7f3a4ccb936f8e141c1e3e76245" parent="83fb23bcaa894b1c9d6414a362bf0a3f" value="+ setId (id : Integer)" style="text;portConstraint=eastwest;overflow=hidden;rotatable=0;" vertex="1"><mxGeometry y="207.82617" width="309" height="19" as="geometry" /></mxCell><mxCell id="o51fe357fbb5e4163bbf1591eaf3fc456245" parent="83fb23bcaa894b1c9d6414a362bf0a3f" value="+ getNombre (): String" style="text;portConstraint=eastwest;overflow=hidden;rotatable=0;" vertex="1"><mxGeometry y="226.82617" width="309" height="19" as="geometry" /></mxCell><mxCell id="ob7afec5441a140588e8b15bce967a9e7245" parent="83fb23bcaa894b1c9d6414a362bf0a3f" value="+ setNombre (nombre : String)" style="text;portConstraint=eastwest;overflow=hidden;rotatable=0;" vertex="1"><mxGeometry y="245.82617" width="309" height="19" as="geometry" /></mxCell><mxCell id="ofed5ad79588c46eba7485cf323bc9f36245" parent="83fb23bcaa894b1c9d6414a362bf0a3f" value="+ getMunicipioCollection (): Collection&lt;Municipio&gt;" style="text;portConstraint=eastwest;overflow=hidden;rotatable=0;" vertex="1"><mxGeometry y="264.82617" width="309" height="19" as="geometry" /></mxCell><mxCell id="o918c8239b6604cae82b715a580afe3d6245" parent="83fb23bcaa894b1c9d6414a362bf0a3f" value="+ setMunicipioCollection (municipioCollection : Collection&lt;Municipio&gt;)" style="text;portConstraint=eastwest;overflow=hidden;rotatable=0;" vertex="1"><mxGeometry y="283.82617" width="309" height="37" as="geometry" /></mxCell><mxCell id="oefae71c3b5f94e49bfd85801abba7ec1245" parent="83fb23bcaa894b1c9d6414a362bf0a3f" value="+ hashCode (): int" style="text;portConstraint=eastwest;overflow=hidden;rotatable=0;" vertex="1"><mxGeometry y="320.82617" width="309" height="19" as="geometry" /></mxCell><mxCell id="tvb929efe08e5b466abd1ccb1bb0765b0d" parent="83fb23bcaa894b1c9d6414a362bf0a3f" value="{Annotation = Override&#xD;}" style="text;portConstraint=eastwest;overflow=hidden;rotatable=0;" vertex="1"><mxGeometry y="339.82617" width="309" height="19" as="geometry" /></mxCell><mxCell id="occ1677a4f46c48e5a612869fb4982b9e245" parent="83fb23bcaa894b1c9d6414a362bf0a3f" value="+ equals (object : Object): boolean" style="text;portConstraint=eastwest;overflow=hidden;rotatable=0;" vertex="1"><mxGeometry y="358.82617" width="309" height="19" as="geometry" /></mxCell><mxCell id="o4b9791e9e36e4ab29a9bd8b54843724d245" parent="83fb23bcaa894b1c9d6414a362bf0a3f" value="+ toString (): String" style="text;portConstraint=eastwest;overflow=hidden;rotatable=0;" vertex="1"><mxGeometry y="377.82617" width="309" height="19" as="geometry" /></mxCell><mxCell id="tv3ccc002362584ea393d471b86ef3e3d9" parent="83fb23bcaa894b1c9d6414a362bf0a3f" value="{Annotation = Override&#xD;}" style="text;portConstraint=eastwest;overflow=hidden;rotatable=0;" vertex="1"><mxGeometry y="396.82617" width="309" height="19" as="geometry" /></mxCell><mxCell id="d24b15c2e580443f8c9f7b5b8732f1cb" parent="1" value="" style="endArrow=block;startArrow=none;endFill=0;startFill=0;html=1;strokeColor=#555555;strokeWidth=2;shadow=1;fillColor=#F2F2F2;swimlaneFillColor=#F2F2F2;" edge="1" source="482514ba6424420896502344e0bea44a" target="abbf837c4ca94729832c296eaaa148e9"><mxGeometry x="40" y="2730" width="298" height="354" as="geometry"><mxPoint x="50" y="3074" as="sourcePoint" /><mxPoint x="328" y="2740" as="targetPoint" /><Array as="points"><mxPoint x="50" y="2907" /><mxPoint x="328" y="2907" /></Array></mxGeometry></mxCell><mxCell id="4de47f1c6cb940f78695a38ec8f362d5" parent="1" value="" style="startArrow=diamondThin;startFill=0;endArrow=none;endFill=0;html=1;strokeColor=#555555;strokeWidth=2;shadow=1;fillColor=#F2F2F2;swimlaneFillColor=#F2F2F2;" edge="1" source="266f5b7ab5cb4129a1ae8ac68093d581" target="1e81bb0d15054bd8a7507bb07f80392a"><mxGeometry x="977" y="2673" width="947" height="220" as="geometry"><mxPoint x="1883" y="2892" as="sourcePoint" /><mxPoint x="1017" y="2673" as="targetPoint" /><Array as="points"><mxPoint x="1883" y="2782.5" /><mxPoint x="1017" y="2782.5" /></Array></mxGeometry></mxCell><mxCell id="482514ba6424420896502344e0bea44a" parent="1" value="Normal" style="swimlane;childLayout=stackLayout;horizontal=1;horizontalStack=0;resizeParent=1;resizeParentMax=0;resizeLast=0;collapsible=1;html=1;strokeColor=#555555;strokeWidth=2;shadow=1;fillColor=#F2F2F2;swimlaneFillColor=#F2F2F2;" vertex="1"><mxGeometry x="-130" y="3074" width="359" height="129" as="geometry" /></mxCell><mxCell id="oad71486aa7494075a1b1ca810b71111d247" parent="482514ba6424420896502344e0bea44a" value="+ «create» Normal ()" style="text;portConstraint=eastwest;overflow=hidden;rotatable=0;" vertex="1"><mxGeometry y="36.82617" width="353" height="19" as="geometry" /></mxCell><mxCell id="oc8d54337312143848832f31fe2d2445a247" parent="482514ba6424420896502344e0bea44a" value="+ «create» Normal (nombreCompleto : String, correo : String, contrasenia : String, telefono : String, avatar : String, ciudad : String, fechaNacimiento : Date, genero : String, normal : Normal, municipioId : Municipio)" style="text;portConstraint=eastwest;overflow=hidden;rotatable=0;" vertex="1"><mxGeometry y="55.82617" width="353" height="71" as="geometry" /></mxCell><mxCell id="62dd6388e908470b8294c45dc14a2d9d" parent="1" value="" style="startArrow=diamondThin;startFill=0;endArrow=none;endFill=0;html=1;strokeColor=#555555;strokeWidth=2;shadow=1;fillColor=#F2F2F2;swimlaneFillColor=#F2F2F2;" edge="1" source="b9029b42b6414c108677233a3ecb4227" target="83fb23bcaa894b1c9d6414a362bf0a3f"><mxGeometry x="-353" y="1778" width="81.88873" height="226" as="geometry"><mxPoint x="-313" y="2003" as="sourcePoint" /><mxPoint x="-312" y="1778" as="targetPoint" /></mxGeometry></mxCell><mxCell id="abbf837c4ca94729832c296eaaa148e9" parent="1" value="Usuario" style="swimlane;childLayout=stackLayout;horizontal=1;horizontalStack=0;resizeParent=1;resizeParentMax=0;resizeLast=0;collapsible=1;html=1;strokeColor=#555555;strokeWidth=2;shadow=1;fillColor=#F2F2F2;swimlaneFillColor=#F2F2F2;" vertex="1"><mxGeometry x="149" y="1625" width="359" height="1115" as="geometry" /></mxCell><mxCell id="a705253001df54f54936254734cc85998221" parent="abbf837c4ca94729832c296eaaa148e9" value="- serialVersionUID: long = 1L" style="text;portConstraint=eastwest;overflow=hidden;rotatable=0;" vertex="1"><mxGeometry y="30.826172" width="353" height="19" as="geometry" /></mxCell><mxCell id="ac147bb0b10e6489ca69f41467c9aba41222" parent="abbf837c4ca94729832c296eaaa148e9" value="- id: Integer" style="text;portConstraint=eastwest;overflow=hidden;rotatable=0;" vertex="1"><mxGeometry y="49.82617" width="353" height="19" as="geometry" /></mxCell><mxCell id="a2c2afd4fe9b34a62849f99db2beef6d5222" parent="abbf837c4ca94729832c296eaaa148e9" value="- nombreCompleto: String" style="text;portConstraint=eastwest;overflow=hidden;rotatable=0;" vertex="1"><mxGeometry y="68.82617" width="353" height="19" as="geometry" /></mxCell><mxCell id="aa5388ce9793541ab8a5fc7bf2657477f222" parent="abbf837c4ca94729832c296eaaa148e9" value="- correo: String" style="text;portConstraint=eastwest;overflow=hidden;rotatable=0;" vertex="1"><mxGeometry y="87.82617" width="353" height="19" as="geometry" /></mxCell><mxCell id="a148c621fe802423183c9394d908e9100223" parent="abbf837c4ca94729832c296eaaa148e9" value="- contrasenia: String" style="text;portConstraint=eastwest;overflow=hidden;rotatable=0;" vertex="1"><mxGeometry y="106.82617" width="353" height="19" as="geometry" /></mxCell><mxCell id="a210aa048c97d4573b47f4195f9485bd0223" parent="abbf837c4ca94729832c296eaaa148e9" value="- telefono: String" style="text;portConstraint=eastwest;overflow=hidden;rotatable=0;" vertex="1"><mxGeometry y="125.82617" width="353" height="19" as="geometry" /></mxCell><mxCell id="a9066cb722809481cb171844a9b8b1e8a223" parent="abbf837c4ca94729832c296eaaa148e9" value="- avatar: String" style="text;portConstraint=eastwest;overflow=hidden;rotatable=0;" vertex="1"><mxGeometry y="144.82617" width="353" height="19" as="geometry" /></mxCell><mxCell id="aa4c105353ab14080ac0371a473fff56e223" parent="abbf837c4ca94729832c296eaaa148e9" value="- ciudad: String" style="text;portConstraint=eastwest;overflow=hidden;rotatable=0;" vertex="1"><mxGeometry y="163.82617" width="353" height="19" as="geometry" /></mxCell><mxCell id="a693cb3e3c18e4b78b395aa182a4f10a1223" parent="abbf837c4ca94729832c296eaaa148e9" value="- fechaNacimiento: Date" style="text;portConstraint=eastwest;overflow=hidden;rotatable=0;" vertex="1"><mxGeometry y="182.82617" width="353" height="19" as="geometry" /></mxCell><mxCell id="a1de65e0f2d614dd880152ad3c02166ab223" parent="abbf837c4ca94729832c296eaaa148e9" value="- genero: String" style="text;portConstraint=eastwest;overflow=hidden;rotatable=0;" vertex="1"><mxGeometry y="201.82617" width="353" height="19" as="geometry" /></mxCell><mxCell id="a3e74b715888c4916b7f0eda24d216501223" parent="abbf837c4ca94729832c296eaaa148e9" value="- normal: Normal" style="text;portConstraint=eastwest;overflow=hidden;rotatable=0;" vertex="1"><mxGeometry y="220.82617" width="353" height="19" as="geometry" /></mxCell><mxCell id="a546261e7f51f46ccb01857de8b674134223" parent="abbf837c4ca94729832c296eaaa148e9" value="- postCollection: Collection&lt;Post&gt;" style="text;portConstraint=eastwest;overflow=hidden;rotatable=0;" vertex="1"><mxGeometry y="239.82617" width="353" height="19" as="geometry" /></mxCell><mxCell id="a02c66c1dca814fe3bdccb26494cb99c7224" parent="abbf837c4ca94729832c296eaaa148e9" value="- admin: Admin" style="text;portConstraint=eastwest;overflow=hidden;rotatable=0;" vertex="1"><mxGeometry y="258.82617" width="353" height="19" as="geometry" /></mxCell><mxCell id="a2e829f02d39041c0bb4043bfddd1d12c224" parent="abbf837c4ca94729832c296eaaa148e9" value="- municipioId: Municipio" style="text;portConstraint=eastwest;overflow=hidden;rotatable=0;" vertex="1"><mxGeometry y="277.82617" width="353" height="19" as="geometry" /></mxCell><mxCell id="ae0c044d43e9843caa7c3bc553767258f224" parent="abbf837c4ca94729832c296eaaa148e9" value="- comentarioCollection: Collection&lt;Comentario&gt;" style="text;portConstraint=eastwest;overflow=hidden;rotatable=0;" vertex="1"><mxGeometry y="296.82617" width="353" height="19" as="geometry" /></mxCell><mxCell id="od1f608ba2f5e4b86a4a3c08595fb3448225" parent="abbf837c4ca94729832c296eaaa148e9" value="+ «create» Usuario ()" style="text;portConstraint=eastwest;overflow=hidden;rotatable=0;" vertex="1"><mxGeometry y="321.82617" width="353" height="19" as="geometry" /></mxCell><mxCell id="oa2f30811bf3b40718cda14fe1a225393226" parent="abbf837c4ca94729832c296eaaa148e9" value="+ «create» Usuario (id : Integer)" style="text;portConstraint=eastwest;overflow=hidden;rotatable=0;" vertex="1"><mxGeometry y="340.82617" width="353" height="19" as="geometry" /></mxCell><mxCell id="o8bf3521960f64fb69fb53dcec306288c227" parent="abbf837c4ca94729832c296eaaa148e9" value="+ «create» Usuario (nombreCompleto : String, correo : String, contrasenia : String, telefono : String, avatar : String, ciudad : String, fechaNacimiento : Date, genero : String, normal : Normal, municipioId : Municipio)" style="text;portConstraint=eastwest;overflow=hidden;rotatable=0;" vertex="1"><mxGeometry y="359.82617" width="353" height="71" as="geometry" /></mxCell><mxCell id="o60f3ff9188d14829ac9eaf8a92d6d07a227" parent="abbf837c4ca94729832c296eaaa148e9" value="+ «create» Usuario (id : Integer, nombreCompleto : String, correo : String, contrasenia : String)" style="text;portConstraint=eastwest;overflow=hidden;rotatable=0;" vertex="1"><mxGeometry y="430.82617" width="353" height="37" as="geometry" /></mxCell><mxCell id="o79275f2db52645c3acd3852217610f6d227" parent="abbf837c4ca94729832c296eaaa148e9" value="+ getId (): Integer" style="text;portConstraint=eastwest;overflow=hidden;rotatable=0;" vertex="1"><mxGeometry y="467.82617" width="353" height="19" as="geometry" /></mxCell><mxCell id="o108d446d83a04d3e95afd7d36cc79bbf227" parent="abbf837c4ca94729832c296eaaa148e9" value="+ setId (id : Integer)" style="text;portConstraint=eastwest;overflow=hidden;rotatable=0;" vertex="1"><mxGeometry y="486.82617" width="353" height="19" as="geometry" /></mxCell><mxCell id="o2716f7d3c3904d1eb5177373ba6c560e227" parent="abbf837c4ca94729832c296eaaa148e9" value="+ getNombreCompleto (): String" style="text;portConstraint=eastwest;overflow=hidden;rotatable=0;" vertex="1"><mxGeometry y="505.82617" width="353" height="19" as="geometry" /></mxCell><mxCell id="o876c83b88b894472afc7d6eb07a20dc4227" parent="abbf837c4ca94729832c296eaaa148e9" value="+ setNombreCompleto (nombreCompleto : String)" style="text;portConstraint=eastwest;overflow=hidden;rotatable=0;" vertex="1"><mxGeometry y="524.8262" width="353" height="19" as="geometry" /></mxCell><mxCell id="oa389a7f5675a49369c80c53b71ae3696227" parent="abbf837c4ca94729832c296eaaa148e9" value="+ getCorreo (): String" style="text;portConstraint=eastwest;overflow=hidden;rotatable=0;" vertex="1"><mxGeometry y="543.8262" width="353" height="19" as="geometry" /></mxCell><mxCell id="o134f39d6b3ba421fa07ac14c37e7ef74227" parent="abbf837c4ca94729832c296eaaa148e9" value="+ setCorreo (correo : String)" style="text;portConstraint=eastwest;overflow=hidden;rotatable=0;" vertex="1"><mxGeometry y="562.8262" width="353" height="19" as="geometry" /></mxCell><mxCell id="o2abaaa583bd74bd3b297c84eb771883a227" parent="abbf837c4ca94729832c296eaaa148e9" value="+ getContrasenia (): String" style="text;portConstraint=eastwest;overflow=hidden;rotatable=0;" vertex="1"><mxGeometry y="581.8262" width="353" height="19" as="geometry" /></mxCell><mxCell id="o901fe9de93f04c13bb6435621c7b1567228" parent="abbf837c4ca94729832c296eaaa148e9" value="+ setContrasenia (contrasenia : String)" style="text;portConstraint=eastwest;overflow=hidden;rotatable=0;" vertex="1"><mxGeometry y="600.8262" width="353" height="19" as="geometry" /></mxCell><mxCell id="o026994b046964bd4bdb0e50af5dd9951228" parent="abbf837c4ca94729832c296eaaa148e9" value="+ getTelefono (): String" style="text;portConstraint=eastwest;overflow=hidden;rotatable=0;" vertex="1"><mxGeometry y="619.8262" width="353" height="19" as="geometry" /></mxCell><mxCell id="oc214855b42054c798fb797e64741fd42228" parent="abbf837c4ca94729832c296eaaa148e9" value="+ setTelefono (telefono : String)" style="text;portConstraint=eastwest;overflow=hidden;rotatable=0;" vertex="1"><mxGeometry y="638.8262" width="353" height="19" as="geometry" /></mxCell><mxCell id="ocd443e72c2d54079aa43fa7475191e89228" parent="abbf837c4ca94729832c296eaaa148e9" value="+ getAvatar (): String" style="text;portConstraint=eastwest;overflow=hidden;rotatable=0;" vertex="1"><mxGeometry y="657.8262" width="353" height="19" as="geometry" /></mxCell><mxCell id="o34eba03c64294bb7885c0b6ac00dd76e228" parent="abbf837c4ca94729832c296eaaa148e9" value="+ setAvatar (avatar : String)" style="text;portConstraint=eastwest;overflow=hidden;rotatable=0;" vertex="1"><mxGeometry y="676.8262" width="353" height="19" as="geometry" /></mxCell><mxCell id="o126d50bc803e4ee1a4d8aebbbe7a4b15228" parent="abbf837c4ca94729832c296eaaa148e9" value="+ getCiudad (): String" style="text;portConstraint=eastwest;overflow=hidden;rotatable=0;" vertex="1"><mxGeometry y="695.8262" width="353" height="19" as="geometry" /></mxCell><mxCell id="ob56aa833fdd54a6599df03b6e047bdef228" parent="abbf837c4ca94729832c296eaaa148e9" value="+ setCiudad (ciudad : String)" style="text;portConstraint=eastwest;overflow=hidden;rotatable=0;" vertex="1"><mxGeometry y="714.8262" width="353" height="19" as="geometry" /></mxCell><mxCell id="o1cdcd55d1ad74e6aa991ab66998d9b79228" parent="abbf837c4ca94729832c296eaaa148e9" value="+ getFechaNacimiento (): Date" style="text;portConstraint=eastwest;overflow=hidden;rotatable=0;" vertex="1"><mxGeometry y="733.8262" width="353" height="19" as="geometry" /></mxCell><mxCell id="of33ea6dbfdfc482882d15a083d518e9b228" parent="abbf837c4ca94729832c296eaaa148e9" value="+ setFechaNacimiento (fechaNacimiento : Date)" style="text;portConstraint=eastwest;overflow=hidden;rotatable=0;" vertex="1"><mxGeometry y="752.8262" width="353" height="19" as="geometry" /></mxCell><mxCell id="ofcff98f116824936911023eadb804197228" parent="abbf837c4ca94729832c296eaaa148e9" value="+ getGenero (): String" style="text;portConstraint=eastwest;overflow=hidden;rotatable=0;" vertex="1"><mxGeometry y="771.8262" width="353" height="19" as="geometry" /></mxCell><mxCell id="o75047f2141814c19a7a8083c07056dc7228" parent="abbf837c4ca94729832c296eaaa148e9" value="+ setGenero (genero : String)" style="text;portConstraint=eastwest;overflow=hidden;rotatable=0;" vertex="1"><mxGeometry y="790.8262" width="353" height="19" as="geometry" /></mxCell><mxCell id="ocfc77a4f9a0a44ca9be610c79b089461228" parent="abbf837c4ca94729832c296eaaa148e9" value="+ getNormal (): Normal" style="text;portConstraint=eastwest;overflow=hidden;rotatable=0;" vertex="1"><mxGeometry y="809.8262" width="353" height="19" as="geometry" /></mxCell><mxCell id="oaa54eeb7913b4ee1826c0385430aea57228" parent="abbf837c4ca94729832c296eaaa148e9" value="+ setNormal (normal : Normal)" style="text;portConstraint=eastwest;overflow=hidden;rotatable=0;" vertex="1"><mxGeometry y="828.8262" width="353" height="19" as="geometry" /></mxCell><mxCell id="oaaaab590c7b84877a92684a197497f84228" parent="abbf837c4ca94729832c296eaaa148e9" value="+ getPostCollection (): Collection&lt;Post&gt;" style="text;portConstraint=eastwest;overflow=hidden;rotatable=0;" vertex="1"><mxGeometry y="847.8262" width="353" height="19" as="geometry" /></mxCell><mxCell id="o1d9cc7bd4e3f419099a1ecd0bb92e694228" parent="abbf837c4ca94729832c296eaaa148e9" value="+ setPostCollection (postCollection : Collection&lt;Post&gt;)" style="text;portConstraint=eastwest;overflow=hidden;rotatable=0;" vertex="1"><mxGeometry y="866.8262" width="353" height="19" as="geometry" /></mxCell><mxCell id="oa11d20302dbc439c868b7656b276cd9f228" parent="abbf837c4ca94729832c296eaaa148e9" value="+ getAdmin (): Admin" style="text;portConstraint=eastwest;overflow=hidden;rotatable=0;" vertex="1"><mxGeometry y="885.8262" width="353" height="19" as="geometry" /></mxCell><mxCell id="o10f2c980958e46c1aa0e3a89c90ea4ca228" parent="abbf837c4ca94729832c296eaaa148e9" value="+ setAdmin (admin : Admin)" style="text;portConstraint=eastwest;overflow=hidden;rotatable=0;" vertex="1"><mxGeometry y="904.8262" width="353" height="19" as="geometry" /></mxCell><mxCell id="oa73d238d2faa42e197be373a675fbb18228" parent="abbf837c4ca94729832c296eaaa148e9" value="+ getMunicipioId (): Municipio" style="text;portConstraint=eastwest;overflow=hidden;rotatable=0;" vertex="1"><mxGeometry y="923.8262" width="353" height="19" as="geometry" /></mxCell><mxCell id="of9b171f6084941e4a53a6d4bb3e4a9b1228" parent="abbf837c4ca94729832c296eaaa148e9" value="+ setMunicipioId (municipioId : Municipio)" style="text;portConstraint=eastwest;overflow=hidden;rotatable=0;" vertex="1"><mxGeometry y="942.8262" width="353" height="19" as="geometry" /></mxCell><mxCell id="ofc90a6367d7843b599d52b346edf787a228" parent="abbf837c4ca94729832c296eaaa148e9" value="+ getComentarioCollection (): Collection&lt;Comentario&gt;" style="text;portConstraint=eastwest;overflow=hidden;rotatable=0;" vertex="1"><mxGeometry y="961.8262" width="353" height="19" as="geometry" /></mxCell><mxCell id="o1bc4199d97bd494aa20575c73dcc42ab228" parent="abbf837c4ca94729832c296eaaa148e9" value="+ setComentarioCollection (comentarioCollection : Collection&lt;Comentario&gt;)" style="text;portConstraint=eastwest;overflow=hidden;rotatable=0;" vertex="1"><mxGeometry y="980.8262" width="353" height="37" as="geometry" /></mxCell><mxCell id="ofb85ac2434a645bbb6513b7dbda41cf9228" parent="abbf837c4ca94729832c296eaaa148e9" value="+ hashCode (): int" style="text;portConstraint=eastwest;overflow=hidden;rotatable=0;" vertex="1"><mxGeometry y="1017.8262" width="353" height="19" as="geometry" /></mxCell><mxCell id="tv1d5193bbef9042919022a20c1cf8340d" parent="abbf837c4ca94729832c296eaaa148e9" value="{Annotation = Override&#xD;}" style="text;portConstraint=eastwest;overflow=hidden;rotatable=0;" vertex="1"><mxGeometry y="1036.8262" width="353" height="19" as="geometry" /></mxCell><mxCell id="o0fdf0ed0c7324c6d9a873b26f00b88a6228" parent="abbf837c4ca94729832c296eaaa148e9" value="+ equals (object : Object): boolean" style="text;portConstraint=eastwest;overflow=hidden;rotatable=0;" vertex="1"><mxGeometry y="1055.8262" width="353" height="19" as="geometry" /></mxCell><mxCell id="oa3cd41f0e09c49678e2d4801689d886f230" parent="abbf837c4ca94729832c296eaaa148e9" value="+ toString (): String" style="text;portConstraint=eastwest;overflow=hidden;rotatable=0;" vertex="1"><mxGeometry y="1074.8262" width="353" height="19" as="geometry" /></mxCell><mxCell id="tv4153aa0350b94cc5a5f02c2863b93ced" parent="abbf837c4ca94729832c296eaaa148e9" value="{Annotation = Override&#xD;}" style="text;portConstraint=eastwest;overflow=hidden;rotatable=0;" vertex="1"><mxGeometry y="1093.8262" width="353" height="19" as="geometry" /></mxCell><mxCell id="ce43bd2ea8564a25ba686ac4528c8721" parent="1" value="" style="startArrow=diamondThin;startFill=0;endArrow=none;endFill=0;html=1;strokeColor=#555555;strokeWidth=2;shadow=1;fillColor=#F2F2F2;swimlaneFillColor=#F2F2F2;" edge="1" source="abbf837c4ca94729832c296eaaa148e9" target="b9029b42b6414c108677233a3ecb4227"><mxGeometry x="-110" y="2207" width="260" height="58.913086" as="geometry"><mxPoint x="149" y="2232" as="sourcePoint" /><mxPoint x="-110" y="2232" as="targetPoint" /></mxGeometry></mxCell><mxCell id="a4c374ca4b46495ab580e38f9ce8afc9" parent="1" value="Admin" style="swimlane;childLayout=stackLayout;horizontal=1;horizontalStack=0;resizeParent=1;resizeParentMax=0;resizeLast=0;collapsible=1;html=1;strokeColor=#555555;strokeWidth=2;shadow=1;fillColor=#F2F2F2;swimlaneFillColor=#F2F2F2;" vertex="1"><mxGeometry x="553" y="3074" width="359" height="110" as="geometry" /></mxCell><mxCell id="oe17252c9f2cd40788e32f11697dc977d248" parent="a4c374ca4b46495ab580e38f9ce8afc9" value="+ «create» Admin (nombreCompleto : String, correo : String, contrasenia : String, telefono : String, avatar : String, ciudad : String, fechaNacimiento : Date, genero : String, normal : Normal, municipioId : Municipio)" style="text;portConstraint=eastwest;overflow=hidden;rotatable=0;" vertex="1"><mxGeometry y="36.82617" width="353" height="71" as="geometry" /></mxCell><mxCell id="7c5934103a514f779a8615174e32bdf1" parent="1" value="" style="startArrow=diamondThin;startFill=0;endArrow=none;endFill=0;html=1;strokeColor=#555555;strokeWidth=2;shadow=1;fillColor=#F2F2F2;swimlaneFillColor=#F2F2F2;" edge="1" source="ec5a7ddd709f48dda4b2d840145c8670" target="1e81bb0d15054bd8a7507bb07f80392a"><mxGeometry x="302" y="1291" width="756" height="402" as="geometry"><mxPoint x="342" y="1291" as="sourcePoint" /><mxPoint x="1017" y="1692" as="targetPoint" /><Array as="points"><mxPoint x="342" y="1491.5" /><mxPoint x="1017" y="1491.5" /></Array></mxGeometry></mxCell><mxCell id="f8ae2acd141746508e5332fca5aef64b" parent="1" value="Anclado" style="swimlane;childLayout=stackLayout;horizontal=1;horizontalStack=0;resizeParent=1;resizeParentMax=0;resizeLast=0;collapsible=1;html=1;strokeColor=#555555;strokeWidth=2;shadow=1;fillColor=#F2F2F2;swimlaneFillColor=#F2F2F2;" vertex="1"><mxGeometry x="1221" y="2892" width="302" height="381" as="geometry" /></mxCell><mxCell id="aa6321bf9bf7042fe8d6a38a5c8ecd1b9239" parent="f8ae2acd141746508e5332fca5aef64b" value="- serialVersionUID: long = 1L" style="text;portConstraint=eastwest;overflow=hidden;rotatable=0;" vertex="1"><mxGeometry y="30.826172" width="296" height="19" as="geometry" /></mxCell><mxCell id="a34b44378bff74b09ac769ecebef72fd9240" parent="f8ae2acd141746508e5332fca5aef64b" value="- id: Integer" style="text;portConstraint=eastwest;overflow=hidden;rotatable=0;" vertex="1"><mxGeometry y="49.82617" width="296" height="19" as="geometry" /></mxCell><mxCell id="a5a66936305b14adbb21ccb312d09e3e8240" parent="f8ae2acd141746508e5332fca5aef64b" value="- adminid: Admin" style="text;portConstraint=eastwest;overflow=hidden;rotatable=0;" vertex="1"><mxGeometry y="68.82617" width="296" height="19" as="geometry" /></mxCell><mxCell id="a3ea754f3cf2e45e7a26a61540ad6d46c240" parent="f8ae2acd141746508e5332fca5aef64b" value="- post: Post" style="text;portConstraint=eastwest;overflow=hidden;rotatable=0;" vertex="1"><mxGeometry y="87.82617" width="296" height="19" as="geometry" /></mxCell><mxCell id="o8426a50ef388466684049bd4f7bce65c240" parent="f8ae2acd141746508e5332fca5aef64b" value="+ «create» Anclado ()" style="text;portConstraint=eastwest;overflow=hidden;rotatable=0;" vertex="1"><mxGeometry y="112.82617" width="296" height="19" as="geometry" /></mxCell><mxCell id="oa373443b49794d5fb0c8a9a856faae4c240" parent="f8ae2acd141746508e5332fca5aef64b" value="+ «create» Anclado (adminid : Admin, post : Post)" style="text;portConstraint=eastwest;overflow=hidden;rotatable=0;" vertex="1"><mxGeometry y="131.82617" width="296" height="19" as="geometry" /></mxCell><mxCell id="o92b15ba2f72b432a89691790cb31e2e6240" parent="f8ae2acd141746508e5332fca5aef64b" value="+ «create» Anclado (id : Integer)" style="text;portConstraint=eastwest;overflow=hidden;rotatable=0;" vertex="1"><mxGeometry y="150.82617" width="296" height="19" as="geometry" /></mxCell><mxCell id="o3ab0d7b3c8234cf49cc7984e0934a31e240" parent="f8ae2acd141746508e5332fca5aef64b" value="+ getId (): Integer" style="text;portConstraint=eastwest;overflow=hidden;rotatable=0;" vertex="1"><mxGeometry y="169.82617" width="296" height="19" as="geometry" /></mxCell><mxCell id="o6084122211fa444981c6322c6194c23e240" parent="f8ae2acd141746508e5332fca5aef64b" value="+ setId (id : Integer)" style="text;portConstraint=eastwest;overflow=hidden;rotatable=0;" vertex="1"><mxGeometry y="188.82617" width="296" height="19" as="geometry" /></mxCell><mxCell id="o6f29ec8420e64796922c3931a6830c67240" parent="f8ae2acd141746508e5332fca5aef64b" value="+ getAdminid (): Admin" style="text;portConstraint=eastwest;overflow=hidden;rotatable=0;" vertex="1"><mxGeometry y="207.82617" width="296" height="19" as="geometry" /></mxCell><mxCell id="o0ecc1c9b3cde415b9d2c01fa9cb72b43240" parent="f8ae2acd141746508e5332fca5aef64b" value="+ setAdminid (adminid : Admin)" style="text;portConstraint=eastwest;overflow=hidden;rotatable=0;" vertex="1"><mxGeometry y="226.82617" width="296" height="19" as="geometry" /></mxCell><mxCell id="o7f848b13aa61416bb4f186dd7a5d21d3240" parent="f8ae2acd141746508e5332fca5aef64b" value="+ getPost (): Post" style="text;portConstraint=eastwest;overflow=hidden;rotatable=0;" vertex="1"><mxGeometry y="245.82617" width="296" height="19" as="geometry" /></mxCell><mxCell id="of69a44e80ecb40a7919331563b912e3f240" parent="f8ae2acd141746508e5332fca5aef64b" value="+ setPost (post : Post)" style="text;portConstraint=eastwest;overflow=hidden;rotatable=0;" vertex="1"><mxGeometry y="264.82617" width="296" height="19" as="geometry" /></mxCell><mxCell id="o87b1678a97d04de99c2e921ba86c3b4c240" parent="f8ae2acd141746508e5332fca5aef64b" value="+ hashCode (): int" style="text;portConstraint=eastwest;overflow=hidden;rotatable=0;" vertex="1"><mxGeometry y="283.82617" width="296" height="19" as="geometry" /></mxCell><mxCell id="tv1c9c3f4ba9704f4fafbbab9860b8d8be" parent="f8ae2acd141746508e5332fca5aef64b" value="{Annotation = Override&#xD;}" style="text;portConstraint=eastwest;overflow=hidden;rotatable=0;" vertex="1"><mxGeometry y="302.82617" width="296" height="19" as="geometry" /></mxCell><mxCell id="od9e61e9763fd432badf89738275e7e72240" parent="f8ae2acd141746508e5332fca5aef64b" value="+ equals (object : Object): boolean" style="text;portConstraint=eastwest;overflow=hidden;rotatable=0;" vertex="1"><mxGeometry y="321.82617" width="296" height="19" as="geometry" /></mxCell><mxCell id="o8b54f4e37ad245efae763b9c44f0b832240" parent="f8ae2acd141746508e5332fca5aef64b" value="+ toString (): String" style="text;portConstraint=eastwest;overflow=hidden;rotatable=0;" vertex="1"><mxGeometry y="340.82617" width="296" height="19" as="geometry" /></mxCell><mxCell id="tv1e1e223b2d924b43b3c72c1131b34ff0" parent="f8ae2acd141746508e5332fca5aef64b" value="{Annotation = Override&#xD;}" style="text;portConstraint=eastwest;overflow=hidden;rotatable=0;" vertex="1"><mxGeometry y="359.82617" width="296" height="19" as="geometry" /></mxCell><mxCell id="df6893a18a284a5b8b12801ab4b7ee3d" parent="1" value="" style="startArrow=diamondThin;startFill=0;endArrow=none;endFill=0;html=1;strokeColor=#555555;strokeWidth=2;shadow=1;fillColor=#F2F2F2;swimlaneFillColor=#F2F2F2;" edge="1" source="1e81bb0d15054bd8a7507bb07f80392a" target="266f5b7ab5cb4129a1ae8ac68093d581"><mxGeometry x="977" y="2673" width="947" height="220" as="geometry"><mxPoint x="1017" y="2673" as="sourcePoint" /><mxPoint x="1883" y="2892" as="targetPoint" /><Array as="points"><mxPoint x="1017" y="2782.5" /><mxPoint x="1883" y="2782.5" /></Array></mxGeometry></mxCell><mxCell id="1e81bb0d15054bd8a7507bb07f80392a" parent="1" value="Post" style="swimlane;childLayout=stackLayout;horizontal=1;horizontalStack=0;resizeParent=1;resizeParentMax=0;resizeLast=0;collapsible=1;html=1;strokeColor=#555555;strokeWidth=2;shadow=1;fillColor=#F2F2F2;swimlaneFillColor=#F2F2F2;" vertex="1"><mxGeometry x="841" y="1692" width="352" height="981" as="geometry" /></mxCell><mxCell id="ad2ae0908cae34e0c935a2015959e8e3e231" parent="1e81bb0d15054bd8a7507bb07f80392a" value="- serialVersionUID: long = 1L" style="text;portConstraint=eastwest;overflow=hidden;rotatable=0;" vertex="1"><mxGeometry y="30.826172" width="346" height="19" as="geometry" /></mxCell><mxCell id="a774e1cf95cb84b11b303267f768ded29232" parent="1e81bb0d15054bd8a7507bb07f80392a" value="- id: Integer" style="text;portConstraint=eastwest;overflow=hidden;rotatable=0;" vertex="1"><mxGeometry y="49.82617" width="346" height="19" as="geometry" /></mxCell><mxCell id="a03ec71b22b744c9a8b542c03fa2ee56a232" parent="1e81bb0d15054bd8a7507bb07f80392a" value="- fechaHoraCreacion: Date" style="text;portConstraint=eastwest;overflow=hidden;rotatable=0;" vertex="1"><mxGeometry y="68.82617" width="346" height="19" as="geometry" /></mxCell><mxCell id="aaaa091b26f6b4a6a9d36a15b3caf3906232" parent="1e81bb0d15054bd8a7507bb07f80392a" value="- titulo: String" style="text;portConstraint=eastwest;overflow=hidden;rotatable=0;" vertex="1"><mxGeometry y="87.82617" width="346" height="19" as="geometry" /></mxCell><mxCell id="ae208e7428c7c4554b0ba38a16ff06d10232" parent="1e81bb0d15054bd8a7507bb07f80392a" value="- contenido: String" style="text;portConstraint=eastwest;overflow=hidden;rotatable=0;" vertex="1"><mxGeometry y="106.82617" width="346" height="19" as="geometry" /></mxCell><mxCell id="a4c795b3758404486a6ad72a5ae4e7344232" parent="1e81bb0d15054bd8a7507bb07f80392a" value="- fechaHoraEdicion: Date" style="text;portConstraint=eastwest;overflow=hidden;rotatable=0;" vertex="1"><mxGeometry y="125.82617" width="346" height="19" as="geometry" /></mxCell><mxCell id="a38bf367a626b4b7780241207c6bc6906232" parent="1e81bb0d15054bd8a7507bb07f80392a" value="- tipo: String" style="text;portConstraint=eastwest;overflow=hidden;rotatable=0;" vertex="1"><mxGeometry y="144.82617" width="346" height="19" as="geometry" /></mxCell><mxCell id="a8237c7539ada44e8bc04b2933eae2ac5232" parent="1e81bb0d15054bd8a7507bb07f80392a" value="- anclado: Anclado" style="text;portConstraint=eastwest;overflow=hidden;rotatable=0;" vertex="1"><mxGeometry y="163.82617" width="346" height="19" as="geometry" /></mxCell><mxCell id="ab059316bde434f4b80c633243b4d6e7f232" parent="1e81bb0d15054bd8a7507bb07f80392a" value="- serieId: Serie" style="text;portConstraint=eastwest;overflow=hidden;rotatable=0;" vertex="1"><mxGeometry y="182.82617" width="346" height="19" as="geometry" /></mxCell><mxCell id="ae30cbb0c3d534dd9831d4ac84f8e9212232" parent="1e81bb0d15054bd8a7507bb07f80392a" value="- usuarioId: Usuario" style="text;portConstraint=eastwest;overflow=hidden;rotatable=0;" vertex="1"><mxGeometry y="201.82617" width="346" height="19" as="geometry" /></mxCell><mxCell id="a56240f5364334287907bd40d1627d5b4232" parent="1e81bb0d15054bd8a7507bb07f80392a" value="- comentarioCollection: Collection&lt;Comentario&gt;" style="text;portConstraint=eastwest;overflow=hidden;rotatable=0;" vertex="1"><mxGeometry y="220.82617" width="346" height="19" as="geometry" /></mxCell><mxCell id="a94f0f44d4f6e4930809de5ccb8b48c96233" parent="1e81bb0d15054bd8a7507bb07f80392a" value="- comun: Comun" style="text;portConstraint=eastwest;overflow=hidden;rotatable=0;" vertex="1"><mxGeometry y="239.82617" width="346" height="19" as="geometry" /></mxCell><mxCell id="o5ad47484bc214e8ba8c9af6c9494cc88233" parent="1e81bb0d15054bd8a7507bb07f80392a" value="+ «create» Post ()" style="text;portConstraint=eastwest;overflow=hidden;rotatable=0;" vertex="1"><mxGeometry y="264.82617" width="346" height="19" as="geometry" /></mxCell><mxCell id="o02e6b5dad2d5428ea6c2ccead14f40ef233" parent="1e81bb0d15054bd8a7507bb07f80392a" value="+ «create» Post (id : Integer)" style="text;portConstraint=eastwest;overflow=hidden;rotatable=0;" vertex="1"><mxGeometry y="283.82617" width="346" height="19" as="geometry" /></mxCell><mxCell id="oc2f7cde4463b4403a449ab858c0d9c9a233" parent="1e81bb0d15054bd8a7507bb07f80392a" value="+ «create» Post (fechaHoraCreacion : Date, titulo : String, contenido : String, tipo : String, serieId : Serie, usuarioId : Usuario)" style="text;portConstraint=eastwest;overflow=hidden;rotatable=0;" vertex="1"><mxGeometry y="302.82617" width="346" height="54" as="geometry" /></mxCell><mxCell id="o52d917eeffdf4223b974c06555dce363233" parent="1e81bb0d15054bd8a7507bb07f80392a" value="+ «create» Post (titulo : String, contenido : String, fechaHoraEdicion : Date, tipo : String, serieId : Serie, usuarioId : Usuario)" style="text;portConstraint=eastwest;overflow=hidden;rotatable=0;" vertex="1"><mxGeometry y="356.82617" width="346" height="54" as="geometry" /></mxCell><mxCell id="o5613515f28cf4c98b5ab1d76b26b86a0233" parent="1e81bb0d15054bd8a7507bb07f80392a" value="+ «create» Post (id : Integer, fechaHoraCreacion : Date, titulo : String, contenido : String, tipo : String)" style="text;portConstraint=eastwest;overflow=hidden;rotatable=0;" vertex="1"><mxGeometry y="410.82617" width="346" height="37" as="geometry" /></mxCell><mxCell id="o50b1395e020d4490ae7afe79df899e08233" parent="1e81bb0d15054bd8a7507bb07f80392a" value="+ getId (): Integer" style="text;portConstraint=eastwest;overflow=hidden;rotatable=0;" vertex="1"><mxGeometry y="447.82617" width="346" height="19" as="geometry" /></mxCell><mxCell id="o0bb6aa68fb2a44078466c787f8059350233" parent="1e81bb0d15054bd8a7507bb07f80392a" value="+ setId (id : Integer)" style="text;portConstraint=eastwest;overflow=hidden;rotatable=0;" vertex="1"><mxGeometry y="466.82617" width="346" height="19" as="geometry" /></mxCell><mxCell id="o9bb788427fc54d97a5d45962d99ec5d1233" parent="1e81bb0d15054bd8a7507bb07f80392a" value="+ getFechaHoraCreacion (): Date" style="text;portConstraint=eastwest;overflow=hidden;rotatable=0;" vertex="1"><mxGeometry y="485.82617" width="346" height="19" as="geometry" /></mxCell><mxCell id="o9cff8482f6de42d4a24711714f942cf2233" parent="1e81bb0d15054bd8a7507bb07f80392a" value="+ setFechaHoraCreacion (fechaHoraCreacion : Date)" style="text;portConstraint=eastwest;overflow=hidden;rotatable=0;" vertex="1"><mxGeometry y="504.82617" width="346" height="19" as="geometry" /></mxCell><mxCell id="o7eae58b56e9640f7ab00acc1a1d82dc2233" parent="1e81bb0d15054bd8a7507bb07f80392a" value="+ getTitulo (): String" style="text;portConstraint=eastwest;overflow=hidden;rotatable=0;" vertex="1"><mxGeometry y="523.8262" width="346" height="19" as="geometry" /></mxCell><mxCell id="occdd24240ebe4cabb259d7bd2175384a233" parent="1e81bb0d15054bd8a7507bb07f80392a" value="+ setTitulo (titulo : String)" style="text;portConstraint=eastwest;overflow=hidden;rotatable=0;" vertex="1"><mxGeometry y="542.8262" width="346" height="19" as="geometry" /></mxCell><mxCell id="o4d8d5e7653bc471e84fa74d83fdec17e233" parent="1e81bb0d15054bd8a7507bb07f80392a" value="+ getContenido (): String" style="text;portConstraint=eastwest;overflow=hidden;rotatable=0;" vertex="1"><mxGeometry y="561.8262" width="346" height="19" as="geometry" /></mxCell><mxCell id="o47e02c4bff51417e8499bc3c900bfbbd234" parent="1e81bb0d15054bd8a7507bb07f80392a" value="+ setContenido (contenido : String)" style="text;portConstraint=eastwest;overflow=hidden;rotatable=0;" vertex="1"><mxGeometry y="580.8262" width="346" height="19" as="geometry" /></mxCell><mxCell id="o66a712e55e4b4943a4fa02344a162c06234" parent="1e81bb0d15054bd8a7507bb07f80392a" value="+ getFechaHoraEdicion (): Date" style="text;portConstraint=eastwest;overflow=hidden;rotatable=0;" vertex="1"><mxGeometry y="599.8262" width="346" height="19" as="geometry" /></mxCell><mxCell id="of1d389545d284ec4b1f7f4b3509da092234" parent="1e81bb0d15054bd8a7507bb07f80392a" value="+ setFechaHoraEdicion (fechaHoraEdicion : Date)" style="text;portConstraint=eastwest;overflow=hidden;rotatable=0;" vertex="1"><mxGeometry y="618.8262" width="346" height="19" as="geometry" /></mxCell><mxCell id="od24c31ddb2794f32b0ce0b17068aa99d234" parent="1e81bb0d15054bd8a7507bb07f80392a" value="+ getTipo (): String" style="text;portConstraint=eastwest;overflow=hidden;rotatable=0;" vertex="1"><mxGeometry y="637.8262" width="346" height="19" as="geometry" /></mxCell><mxCell id="odf9f214c991b41f8ac4e8c5622f314da234" parent="1e81bb0d15054bd8a7507bb07f80392a" value="+ setTipo (tipo : String)" style="text;portConstraint=eastwest;overflow=hidden;rotatable=0;" vertex="1"><mxGeometry y="656.8262" width="346" height="19" as="geometry" /></mxCell><mxCell id="o57b45087237f4fc8ad048324386bb4c3234" parent="1e81bb0d15054bd8a7507bb07f80392a" value="+ getAnclado (): Anclado" style="text;portConstraint=eastwest;overflow=hidden;rotatable=0;" vertex="1"><mxGeometry y="675.8262" width="346" height="19" as="geometry" /></mxCell><mxCell id="o9da98bcf1db44c098d19e1ff4aa739e9234" parent="1e81bb0d15054bd8a7507bb07f80392a" value="+ setAnclado (anclado : Anclado)" style="text;portConstraint=eastwest;overflow=hidden;rotatable=0;" vertex="1"><mxGeometry y="694.8262" width="346" height="19" as="geometry" /></mxCell><mxCell id="o72155de8d6f8414288a257286489d088234" parent="1e81bb0d15054bd8a7507bb07f80392a" value="+ getSerieId (): Serie" style="text;portConstraint=eastwest;overflow=hidden;rotatable=0;" vertex="1"><mxGeometry y="713.8262" width="346" height="19" as="geometry" /></mxCell><mxCell id="o8c9006e684614118a94877526594bf3a234" parent="1e81bb0d15054bd8a7507bb07f80392a" value="+ setSerieId (serieId : Serie)" style="text;portConstraint=eastwest;overflow=hidden;rotatable=0;" vertex="1"><mxGeometry y="732.8262" width="346" height="19" as="geometry" /></mxCell><mxCell id="of8ba4e524cb74a8fae628bf001ad4f7f234" parent="1e81bb0d15054bd8a7507bb07f80392a" value="+ getUsuarioId (): Usuario" style="text;portConstraint=eastwest;overflow=hidden;rotatable=0;" vertex="1"><mxGeometry y="751.8262" width="346" height="19" as="geometry" /></mxCell><mxCell id="obf6fcf84c14344a8b59251198772f496234" parent="1e81bb0d15054bd8a7507bb07f80392a" value="+ setUsuarioId (usuarioId : Usuario)" style="text;portConstraint=eastwest;overflow=hidden;rotatable=0;" vertex="1"><mxGeometry y="770.8262" width="346" height="19" as="geometry" /></mxCell><mxCell id="oc58d343fe2dd425093433431a49f109a234" parent="1e81bb0d15054bd8a7507bb07f80392a" value="+ getComentarioCollection (): Collection&lt;Comentario&gt;" style="text;portConstraint=eastwest;overflow=hidden;rotatable=0;" vertex="1"><mxGeometry y="789.8262" width="346" height="19" as="geometry" /></mxCell><mxCell id="o6c33e6fd59544ee38b78b6cd8b50a6b2234" parent="1e81bb0d15054bd8a7507bb07f80392a" value="+ setComentarioCollection (comentarioCollection : Collection&lt;Comentario&gt;)" style="text;portConstraint=eastwest;overflow=hidden;rotatable=0;" vertex="1"><mxGeometry y="808.8262" width="346" height="37" as="geometry" /></mxCell><mxCell id="o3b9ada7b3aef4834a2455c03a520ef7d234" parent="1e81bb0d15054bd8a7507bb07f80392a" value="+ getComun (): Comun" style="text;portConstraint=eastwest;overflow=hidden;rotatable=0;" vertex="1"><mxGeometry y="845.8262" width="346" height="19" as="geometry" /></mxCell><mxCell id="oaf57ee015dce49f39c6082a7b22cb10b234" parent="1e81bb0d15054bd8a7507bb07f80392a" value="+ setComun (comun : Comun)" style="text;portConstraint=eastwest;overflow=hidden;rotatable=0;" vertex="1"><mxGeometry y="864.8262" width="346" height="19" as="geometry" /></mxCell><mxCell id="o6777c698b60146c694d8a1cb712056c6234" parent="1e81bb0d15054bd8a7507bb07f80392a" value="+ hashCode (): int" style="text;portConstraint=eastwest;overflow=hidden;rotatable=0;" vertex="1"><mxGeometry y="883.8262" width="346" height="19" as="geometry" /></mxCell><mxCell id="tvf7927a10dddf477fa05dbb0ef71d56dd" parent="1e81bb0d15054bd8a7507bb07f80392a" value="{Annotation = Override&#xD;}" style="text;portConstraint=eastwest;overflow=hidden;rotatable=0;" vertex="1"><mxGeometry y="902.8262" width="346" height="19" as="geometry" /></mxCell><mxCell id="o6fcae4a1ddd54ddc9e8c301b7d81b6e2234" parent="1e81bb0d15054bd8a7507bb07f80392a" value="+ equals (object : Object): boolean" style="text;portConstraint=eastwest;overflow=hidden;rotatable=0;" vertex="1"><mxGeometry y="921.8262" width="346" height="19" as="geometry" /></mxCell><mxCell id="o3251bb712d6c4406a68de6983af4db3d234" parent="1e81bb0d15054bd8a7507bb07f80392a" value="+ toString (): String" style="text;portConstraint=eastwest;overflow=hidden;rotatable=0;" vertex="1"><mxGeometry y="940.8262" width="346" height="19" as="geometry" /></mxCell><mxCell id="tvf289dc42085241b4b22d9e88e7667808" parent="1e81bb0d15054bd8a7507bb07f80392a" value="{Annotation = Override&#xD;}" style="text;portConstraint=eastwest;overflow=hidden;rotatable=0;" vertex="1"><mxGeometry y="959.8262" width="346" height="19" as="geometry" /></mxCell><mxCell id="d85f3b090cda4bef9e1ad8ff3bc9e1e6" parent="1" value="" style="startArrow=diamondThin;startFill=0;endArrow=none;endFill=0;html=1;strokeColor=#555555;strokeWidth=2;shadow=1;fillColor=#F2F2F2;swimlaneFillColor=#F2F2F2;" edge="1" source="f8ae2acd141746508e5332fca5aef64b" target="a4c374ca4b46495ab580e38f9ce8afc9"><mxGeometry x="912" y="3104" width="310" height="58.913086" as="geometry"><mxPoint x="1221" y="3129" as="sourcePoint" /><mxPoint x="912" y="3129" as="targetPoint" /></mxGeometry></mxCell><mxCell id="9d3372cba18b4a67a85f2d62a4aa670d" parent="1" value="Serie" style="swimlane;childLayout=stackLayout;horizontal=1;horizontalStack=0;resizeParent=1;resizeParentMax=0;resizeLast=0;collapsible=1;html=1;strokeColor=#555555;strokeWidth=2;shadow=1;fillColor=#F2F2F2;swimlaneFillColor=#F2F2F2;" vertex="1"><mxGeometry x="1887" y="1860" width="347" height="607" as="geometry" /></mxCell><mxCell id="a81100e595cfa4653a03fbf5f350cf426237" parent="9d3372cba18b4a67a85f2d62a4aa670d" value="- serialVersionUID: long = 1L" style="text;portConstraint=eastwest;overflow=hidden;rotatable=0;" vertex="1"><mxGeometry y="30.826172" width="341" height="19" as="geometry" /></mxCell><mxCell id="a35629f6a2497440da466c68facaef30c238" parent="9d3372cba18b4a67a85f2d62a4aa670d" value="- id: Integer" style="text;portConstraint=eastwest;overflow=hidden;rotatable=0;" vertex="1"><mxGeometry y="49.82617" width="341" height="19" as="geometry" /></mxCell><mxCell id="a560b1e26cc344186a8dbc94cd53dfa9d238" parent="9d3372cba18b4a67a85f2d62a4aa670d" value="- titulo: String" style="text;portConstraint=eastwest;overflow=hidden;rotatable=0;" vertex="1"><mxGeometry y="68.82617" width="341" height="19" as="geometry" /></mxCell><mxCell id="a76cdfab11ca249d6904eab05c23ec8ba238" parent="9d3372cba18b4a67a85f2d62a4aa670d" value="- descripcion: String" style="text;portConstraint=eastwest;overflow=hidden;rotatable=0;" vertex="1"><mxGeometry y="87.82617" width="341" height="19" as="geometry" /></mxCell><mxCell id="a6308a4fa62554305ad72bd6f416cedb7238" parent="9d3372cba18b4a67a85f2d62a4aa670d" value="- fechaEstreno: Date" style="text;portConstraint=eastwest;overflow=hidden;rotatable=0;" vertex="1"><mxGeometry y="106.82617" width="341" height="19" as="geometry" /></mxCell><mxCell id="acbc4fc986cfe404795e9cff15685521c238" parent="9d3372cba18b4a67a85f2d62a4aa670d" value="- genero: String" style="text;portConstraint=eastwest;overflow=hidden;rotatable=0;" vertex="1"><mxGeometry y="125.82617" width="341" height="19" as="geometry" /></mxCell><mxCell id="a66e0b956a2f849788ac2b77374546754238" parent="9d3372cba18b4a67a85f2d62a4aa670d" value="- postCollection: Collection&lt;Post&gt;" style="text;portConstraint=eastwest;overflow=hidden;rotatable=0;" vertex="1"><mxGeometry y="144.82617" width="341" height="19" as="geometry" /></mxCell><mxCell id="o41a5502da8bc42d3a5e237841decc5be238" parent="9d3372cba18b4a67a85f2d62a4aa670d" value="+ «create» Serie ()" style="text;portConstraint=eastwest;overflow=hidden;rotatable=0;" vertex="1"><mxGeometry y="169.82617" width="341" height="19" as="geometry" /></mxCell><mxCell id="o7d7f108751ed4141878b4dcdbb3aa6d4238" parent="9d3372cba18b4a67a85f2d62a4aa670d" value="+ «create» Serie (id : Integer)" style="text;portConstraint=eastwest;overflow=hidden;rotatable=0;" vertex="1"><mxGeometry y="188.82617" width="341" height="19" as="geometry" /></mxCell><mxCell id="o2a93311ce056497aaf8a7cade8d33c94238" parent="9d3372cba18b4a67a85f2d62a4aa670d" value="+ «create» Serie (titulo : String, descripcion : String, fechaEstreno : Date, genero : String)" style="text;portConstraint=eastwest;overflow=hidden;rotatable=0;" vertex="1"><mxGeometry y="207.82617" width="341" height="37" as="geometry" /></mxCell><mxCell id="o8f6d4e0f7a1d4c188fdb7abbfd14c3f5238" parent="9d3372cba18b4a67a85f2d62a4aa670d" value="+ «create» Serie (id : Integer, titulo : String, descripcion : String)" style="text;portConstraint=eastwest;overflow=hidden;rotatable=0;" vertex="1"><mxGeometry y="244.82617" width="341" height="37" as="geometry" /></mxCell><mxCell id="o487460bd83fc4adba5938971d726042d238" parent="9d3372cba18b4a67a85f2d62a4aa670d" value="+ getId (): Integer" style="text;portConstraint=eastwest;overflow=hidden;rotatable=0;" vertex="1"><mxGeometry y="281.82617" width="341" height="19" as="geometry" /></mxCell><mxCell id="o35f349e3d8414201a13b218d764e4d47238" parent="9d3372cba18b4a67a85f2d62a4aa670d" value="+ setId (id : Integer)" style="text;portConstraint=eastwest;overflow=hidden;rotatable=0;" vertex="1"><mxGeometry y="300.82617" width="341" height="19" as="geometry" /></mxCell><mxCell id="o588cc9b913354e91a9a63fe5c4b5008c238" parent="9d3372cba18b4a67a85f2d62a4aa670d" value="+ getTitulo (): String" style="text;portConstraint=eastwest;overflow=hidden;rotatable=0;" vertex="1"><mxGeometry y="319.82617" width="341" height="19" as="geometry" /></mxCell><mxCell id="of857431fec0042b3949254e70b1ba2f8238" parent="9d3372cba18b4a67a85f2d62a4aa670d" value="+ setTitulo (titulo : String)" style="text;portConstraint=eastwest;overflow=hidden;rotatable=0;" vertex="1"><mxGeometry y="338.82617" width="341" height="19" as="geometry" /></mxCell><mxCell id="oc123fc86346f4aa89b16d020f2d54f29238" parent="9d3372cba18b4a67a85f2d62a4aa670d" value="+ getDescripcion (): String" style="text;portConstraint=eastwest;overflow=hidden;rotatable=0;" vertex="1"><mxGeometry y="357.82617" width="341" height="19" as="geometry" /></mxCell><mxCell id="o2de130273ed345fe98cc977f6d6cefe4238" parent="9d3372cba18b4a67a85f2d62a4aa670d" value="+ setDescripcion (descripcion : String)" style="text;portConstraint=eastwest;overflow=hidden;rotatable=0;" vertex="1"><mxGeometry y="376.82617" width="341" height="19" as="geometry" /></mxCell><mxCell id="ofd3aec92b721490b8ffe57a213190487238" parent="9d3372cba18b4a67a85f2d62a4aa670d" value="+ getFechaEstreno (): Date" style="text;portConstraint=eastwest;overflow=hidden;rotatable=0;" vertex="1"><mxGeometry y="395.82617" width="341" height="19" as="geometry" /></mxCell><mxCell id="o856b582b53ae46c18e01226145d7f0f1238" parent="9d3372cba18b4a67a85f2d62a4aa670d" value="+ setFechaEstreno (fechaEstreno : Date)" style="text;portConstraint=eastwest;overflow=hidden;rotatable=0;" vertex="1"><mxGeometry y="414.82617" width="341" height="19" as="geometry" /></mxCell><mxCell id="oacee25966c0449c687468a7f6c0fb4f4239" parent="9d3372cba18b4a67a85f2d62a4aa670d" value="+ getGenero (): String" style="text;portConstraint=eastwest;overflow=hidden;rotatable=0;" vertex="1"><mxGeometry y="433.82617" width="341" height="19" as="geometry" /></mxCell><mxCell id="o71a6d8bcf6d74645a41d5aaca4963cb8239" parent="9d3372cba18b4a67a85f2d62a4aa670d" value="+ setGenero (genero : String)" style="text;portConstraint=eastwest;overflow=hidden;rotatable=0;" vertex="1"><mxGeometry y="452.82617" width="341" height="19" as="geometry" /></mxCell><mxCell id="o81b64f264e4d41a28d572e86d1260ef7239" parent="9d3372cba18b4a67a85f2d62a4aa670d" value="+ getPostCollection (): Collection&lt;Post&gt;" style="text;portConstraint=eastwest;overflow=hidden;rotatable=0;" vertex="1"><mxGeometry y="471.82617" width="341" height="19" as="geometry" /></mxCell><mxCell id="oe47198bb61d94683a4336c52ae743d03239" parent="9d3372cba18b4a67a85f2d62a4aa670d" value="+ setPostCollection (postCollection : Collection&lt;Post&gt;)" style="text;portConstraint=eastwest;overflow=hidden;rotatable=0;" vertex="1"><mxGeometry y="490.82617" width="341" height="19" as="geometry" /></mxCell><mxCell id="o7cc7fe493e32476c9ec801d9d890e3e0239" parent="9d3372cba18b4a67a85f2d62a4aa670d" value="+ hashCode (): int" style="text;portConstraint=eastwest;overflow=hidden;rotatable=0;" vertex="1"><mxGeometry y="509.82617" width="341" height="19" as="geometry" /></mxCell><mxCell id="tv1800c4e93beb45e7b1a8300ed563cd07" parent="9d3372cba18b4a67a85f2d62a4aa670d" value="{Annotation = Override&#xD;}" style="text;portConstraint=eastwest;overflow=hidden;rotatable=0;" vertex="1"><mxGeometry y="528.8262" width="341" height="19" as="geometry" /></mxCell><mxCell id="o7670827646df4987972c2a8080d7598e239" parent="9d3372cba18b4a67a85f2d62a4aa670d" value="+ equals (object : Object): boolean" style="text;portConstraint=eastwest;overflow=hidden;rotatable=0;" vertex="1"><mxGeometry y="547.8262" width="341" height="19" as="geometry" /></mxCell><mxCell id="oc4de4d5aa9394ae6a9ebd2e39d9254f3239" parent="9d3372cba18b4a67a85f2d62a4aa670d" value="+ toString (): String" style="text;portConstraint=eastwest;overflow=hidden;rotatable=0;" vertex="1"><mxGeometry y="566.8262" width="341" height="19" as="geometry" /></mxCell><mxCell id="tvbc69ec5b00f240f69a884edcb591e2e6" parent="9d3372cba18b4a67a85f2d62a4aa670d" value="{Annotation = Override&#xD;}" style="text;portConstraint=eastwest;overflow=hidden;rotatable=0;" vertex="1"><mxGeometry y="585.8262" width="341" height="19" as="geometry" /></mxCell><mxCell id="50504014f7b044e38da494f1be496098" parent="1" value="" style="startArrow=diamondThin;startFill=0;endArrow=none;endFill=0;html=1;strokeColor=#555555;strokeWidth=2;shadow=1;fillColor=#F2F2F2;swimlaneFillColor=#F2F2F2;" edge="1" source="abbf837c4ca94729832c296eaaa148e9" target="482514ba6424420896502344e0bea44a"><mxGeometry x="10" y="2740" width="359" height="335" as="geometry"><mxPoint x="328" y="2740" as="sourcePoint" /><mxPoint x="50" y="3074" as="targetPoint" /><Array as="points"><mxPoint x="328" y="2907" /><mxPoint x="50" y="2907" /></Array></mxGeometry></mxCell><mxCell id="eba9194b8ba34211831c5c0fb9809e48" parent="1" value="" style="startArrow=diamondThin;startFill=0;endArrow=none;endFill=0;html=1;strokeColor=#555555;strokeWidth=2;shadow=1;fillColor=#F2F2F2;swimlaneFillColor=#F2F2F2;" edge="1" source="ec5a7ddd709f48dda4b2d840145c8670" target="ec5a7ddd709f48dda4b2d840145c8670"><mxGeometry x="88" y="524" width="158" height="116" as="geometry"><mxPoint x="205" y="574" as="sourcePoint" /><mxPoint x="165" y="614" as="targetPoint" /><Array as="points"><mxPoint x="205" y="524" /><mxPoint x="115" y="524" /><mxPoint x="115" y="614" /></Array></mxGeometry></mxCell><mxCell id="266f5b7ab5cb4129a1ae8ac68093d581" parent="1" value="Comun" style="swimlane;childLayout=stackLayout;horizontal=1;horizontalStack=0;resizeParent=1;resizeParentMax=0;resizeLast=0;collapsible=1;html=1;strokeColor=#555555;strokeWidth=2;shadow=1;fillColor=#F2F2F2;swimlaneFillColor=#F2F2F2;" vertex="1"><mxGeometry x="1776" y="2892" width="214" height="324" as="geometry" /></mxCell><mxCell id="a72c67569b1674b04923de101b6c41726246" parent="266f5b7ab5cb4129a1ae8ac68093d581" value="- serialVersionUID: long = 1L" style="text;portConstraint=eastwest;overflow=hidden;rotatable=0;" vertex="1"><mxGeometry y="30.826172" width="208" height="19" as="geometry" /></mxCell><mxCell id="a15e2f1851d444687a6700a15c4b4dc20246" parent="266f5b7ab5cb4129a1ae8ac68093d581" value="- id: Integer" style="text;portConstraint=eastwest;overflow=hidden;rotatable=0;" vertex="1"><mxGeometry y="49.82617" width="208" height="19" as="geometry" /></mxCell><mxCell id="a4242a92ca43a4b65807f0970854ef77c246" parent="266f5b7ab5cb4129a1ae8ac68093d581" value="- post: Post" style="text;portConstraint=eastwest;overflow=hidden;rotatable=0;" vertex="1"><mxGeometry y="68.82617" width="208" height="19" as="geometry" /></mxCell><mxCell id="o1e75bfd114624c9eaaf62e673b3c44b9246" parent="266f5b7ab5cb4129a1ae8ac68093d581" value="+ «create» Comun ()" style="text;portConstraint=eastwest;overflow=hidden;rotatable=0;" vertex="1"><mxGeometry y="93.82617" width="208" height="19" as="geometry" /></mxCell><mxCell id="oee0b22af10d94415a2a5ff4deda9d283246" parent="266f5b7ab5cb4129a1ae8ac68093d581" value="+ «create» Comun (post : Post)" style="text;portConstraint=eastwest;overflow=hidden;rotatable=0;" vertex="1"><mxGeometry y="112.82617" width="208" height="19" as="geometry" /></mxCell><mxCell id="o31f387b592a54ccab1614969ae8a677d246" parent="266f5b7ab5cb4129a1ae8ac68093d581" value="+ «create» Comun (id : Integer)" style="text;portConstraint=eastwest;overflow=hidden;rotatable=0;" vertex="1"><mxGeometry y="131.82617" width="208" height="19" as="geometry" /></mxCell><mxCell id="o7ab67bd6cc68418e8b14087c1932ceb3246" parent="266f5b7ab5cb4129a1ae8ac68093d581" value="+ getId (): Integer" style="text;portConstraint=eastwest;overflow=hidden;rotatable=0;" vertex="1"><mxGeometry y="150.82617" width="208" height="19" as="geometry" /></mxCell><mxCell id="o0b0bcf0b08c2400b9b187a392c7058fe246" parent="266f5b7ab5cb4129a1ae8ac68093d581" value="+ setId (id : Integer)" style="text;portConstraint=eastwest;overflow=hidden;rotatable=0;" vertex="1"><mxGeometry y="169.82617" width="208" height="19" as="geometry" /></mxCell><mxCell id="o091b9665e7624edc9ee5b2f321a2cc46246" parent="266f5b7ab5cb4129a1ae8ac68093d581" value="+ getPost (): Post" style="text;portConstraint=eastwest;overflow=hidden;rotatable=0;" vertex="1"><mxGeometry y="188.82617" width="208" height="19" as="geometry" /></mxCell><mxCell id="o0349d4e159644fa3adc620da98c3f3af246" parent="266f5b7ab5cb4129a1ae8ac68093d581" value="+ setPost (post : Post)" style="text;portConstraint=eastwest;overflow=hidden;rotatable=0;" vertex="1"><mxGeometry y="207.82617" width="208" height="19" as="geometry" /></mxCell><mxCell id="o21c5c08218c2459f8440b4d072bdf811246" parent="266f5b7ab5cb4129a1ae8ac68093d581" value="+ hashCode (): int" style="text;portConstraint=eastwest;overflow=hidden;rotatable=0;" vertex="1"><mxGeometry y="226.82617" width="208" height="19" as="geometry" /></mxCell><mxCell id="tvf25f636748d6459b982907aa7a612bc3" parent="266f5b7ab5cb4129a1ae8ac68093d581" value="{Annotation = Override&#xD;}" style="text;portConstraint=eastwest;overflow=hidden;rotatable=0;" vertex="1"><mxGeometry y="245.82617" width="208" height="19" as="geometry" /></mxCell><mxCell id="ob8b26877700e44cf9af961626eaf2bd8246" parent="266f5b7ab5cb4129a1ae8ac68093d581" value="+ equals (object : Object): boolean" style="text;portConstraint=eastwest;overflow=hidden;rotatable=0;" vertex="1"><mxGeometry y="264.82617" width="208" height="19" as="geometry" /></mxCell><mxCell id="o10782195f9424f18ab94b055b67dca33246" parent="266f5b7ab5cb4129a1ae8ac68093d581" value="+ toString (): String" style="text;portConstraint=eastwest;overflow=hidden;rotatable=0;" vertex="1"><mxGeometry y="283.82617" width="208" height="19" as="geometry" /></mxCell><mxCell id="tvc4bfe6052686461c911b6bf5083706fe" parent="266f5b7ab5cb4129a1ae8ac68093d581" value="{Annotation = Override&#xD;}" style="text;portConstraint=eastwest;overflow=hidden;rotatable=0;" vertex="1"><mxGeometry y="302.82617" width="208" height="19" as="geometry" /></mxCell><mxCell id="9f7116e75cc24f38842cc7366e69c3d4" parent="1" value="" style="startArrow=diamondThin;startFill=0;endArrow=none;endFill=0;html=1;strokeColor=#555555;strokeWidth=2;shadow=1;fillColor=#F2F2F2;swimlaneFillColor=#F2F2F2;" edge="1" source="abbf837c4ca94729832c296eaaa148e9" target="a4c374ca4b46495ab580e38f9ce8afc9"><mxGeometry x="288" y="2740" width="485" height="335" as="geometry"><mxPoint x="328" y="2740" as="sourcePoint" /><mxPoint x="732" y="3074" as="targetPoint" /><Array as="points"><mxPoint x="328" y="2907" /><mxPoint x="732" y="2907" /></Array></mxGeometry></mxCell><mxCell id="85de93e57f204d77a0566487b54446ca" parent="1" value="" style="startArrow=diamondThin;startFill=0;endArrow=none;endFill=0;html=1;strokeColor=#555555;strokeWidth=2;shadow=1;fillColor=#F2F2F2;swimlaneFillColor=#F2F2F2;" edge="1" source="f8ae2acd141746508e5332fca5aef64b" target="1e81bb0d15054bd8a7507bb07f80392a"><mxGeometry x="977" y="2673" width="436" height="220" as="geometry"><mxPoint x="1372" y="2892" as="sourcePoint" /><mxPoint x="1017" y="2673" as="targetPoint" /><Array as="points"><mxPoint x="1372" y="2782.5" /><mxPoint x="1017" y="2782.5" /></Array></mxGeometry></mxCell><mxCell id="b9029b42b6414c108677233a3ecb4227" parent="1" value="Municipio" style="swimlane;childLayout=stackLayout;horizontal=1;horizontalStack=0;resizeParent=1;resizeParentMax=0;resizeLast=0;collapsible=1;html=1;strokeColor=#555555;strokeWidth=2;shadow=1;fillColor=#F2F2F2;swimlaneFillColor=#F2F2F2;" vertex="1"><mxGeometry x="-507" y="2003" width="397" height="457" as="geometry" /></mxCell><mxCell id="a199ae742c41f47649118cf1bd92e77ae241" parent="b9029b42b6414c108677233a3ecb4227" value="- serialVersionUID: long = 1L" style="text;portConstraint=eastwest;overflow=hidden;rotatable=0;" vertex="1"><mxGeometry y="30.826172" width="391" height="19" as="geometry" /></mxCell><mxCell id="a971feb24488a429aaa6c9c6097d9341a241" parent="b9029b42b6414c108677233a3ecb4227" value="- id: Integer" style="text;portConstraint=eastwest;overflow=hidden;rotatable=0;" vertex="1"><mxGeometry y="49.82617" width="391" height="19" as="geometry" /></mxCell><mxCell id="a04434bca439c402eb12548081f6bb005241" parent="b9029b42b6414c108677233a3ecb4227" value="- nombre: String" style="text;portConstraint=eastwest;overflow=hidden;rotatable=0;" vertex="1"><mxGeometry y="68.82617" width="391" height="19" as="geometry" /></mxCell><mxCell id="a7c847c34ab984bd9afde0b7fc1619a6a241" parent="b9029b42b6414c108677233a3ecb4227" value="- estadoId: Estado" style="text;portConstraint=eastwest;overflow=hidden;rotatable=0;" vertex="1"><mxGeometry y="87.82617" width="391" height="19" as="geometry" /></mxCell><mxCell id="a8b51ae9cbd8f43169fbdb89f5b7a698f242" parent="b9029b42b6414c108677233a3ecb4227" value="- usuarioCollection: List&lt;Usuario&gt;" style="text;portConstraint=eastwest;overflow=hidden;rotatable=0;" vertex="1"><mxGeometry y="106.82617" width="391" height="19" as="geometry" /></mxCell><mxCell id="oc1786f96138b41898c4c8158acd3afc8243" parent="b9029b42b6414c108677233a3ecb4227" value="+ «create» Municipio ()" style="text;portConstraint=eastwest;overflow=hidden;rotatable=0;" vertex="1"><mxGeometry y="131.82617" width="391" height="19" as="geometry" /></mxCell><mxCell id="oa5f5a14c179c48a18f1427b4f31d3395243" parent="b9029b42b6414c108677233a3ecb4227" value="+ «create» Municipio (nombre : String, estadoId : Estado)" style="text;portConstraint=eastwest;overflow=hidden;rotatable=0;" vertex="1"><mxGeometry y="150.82617" width="391" height="19" as="geometry" /></mxCell><mxCell id="o3febb94b485c4a6ab90b535efb8c1c3a243" parent="b9029b42b6414c108677233a3ecb4227" value="+ «create» Municipio (id : Integer)" style="text;portConstraint=eastwest;overflow=hidden;rotatable=0;" vertex="1"><mxGeometry y="169.82617" width="391" height="19" as="geometry" /></mxCell><mxCell id="o9a1ad2a106bf4ba0bb03d88da73a99ab243" parent="b9029b42b6414c108677233a3ecb4227" value="+ «create» Municipio (id : Integer, nombre : String)" style="text;portConstraint=eastwest;overflow=hidden;rotatable=0;" vertex="1"><mxGeometry y="188.82617" width="391" height="19" as="geometry" /></mxCell><mxCell id="o0f684e327ca04fabbd8f7a6bb36d50bf243" parent="b9029b42b6414c108677233a3ecb4227" value="+ getId (): Integer" style="text;portConstraint=eastwest;overflow=hidden;rotatable=0;" vertex="1"><mxGeometry y="207.82617" width="391" height="19" as="geometry" /></mxCell><mxCell id="oa3de2d187b414bcfb60d867e3c2465d5243" parent="b9029b42b6414c108677233a3ecb4227" value="+ setId (id : Integer)" style="text;portConstraint=eastwest;overflow=hidden;rotatable=0;" vertex="1"><mxGeometry y="226.82617" width="391" height="19" as="geometry" /></mxCell><mxCell id="ofba3eccae898492abc6940004e6a5bc3243" parent="b9029b42b6414c108677233a3ecb4227" value="+ getNombre (): String" style="text;portConstraint=eastwest;overflow=hidden;rotatable=0;" vertex="1"><mxGeometry y="245.82617" width="391" height="19" as="geometry" /></mxCell><mxCell id="o8c83f388b8264b4a995741636fa029d8243" parent="b9029b42b6414c108677233a3ecb4227" value="+ setNombre (nombre : String)" style="text;portConstraint=eastwest;overflow=hidden;rotatable=0;" vertex="1"><mxGeometry y="264.82617" width="391" height="19" as="geometry" /></mxCell><mxCell id="o851d4df2aa7b462ebe129be4712662ec243" parent="b9029b42b6414c108677233a3ecb4227" value="+ getEstadoId (): Estado" style="text;portConstraint=eastwest;overflow=hidden;rotatable=0;" vertex="1"><mxGeometry y="283.82617" width="391" height="19" as="geometry" /></mxCell><mxCell id="o860f0343ad474f52ae3d242581f7cbba243" parent="b9029b42b6414c108677233a3ecb4227" value="+ setEstadoId (estadoId : Estado)" style="text;portConstraint=eastwest;overflow=hidden;rotatable=0;" vertex="1"><mxGeometry y="302.82617" width="391" height="19" as="geometry" /></mxCell><mxCell id="o05190d52afcd459da7c188b8fc146002243" parent="b9029b42b6414c108677233a3ecb4227" value="+ getUsuarioCollection (): Collection&lt;Usuario&gt;" style="text;portConstraint=eastwest;overflow=hidden;rotatable=0;" vertex="1"><mxGeometry y="321.82617" width="391" height="19" as="geometry" /></mxCell><mxCell id="od6e8a36946c54a79be841eeb918b2b03243" parent="b9029b42b6414c108677233a3ecb4227" value="+ setUsuarioCollection (usuarioCollection : List&lt;Usuario&gt;)" style="text;portConstraint=eastwest;overflow=hidden;rotatable=0;" vertex="1"><mxGeometry y="340.82617" width="391" height="19" as="geometry" /></mxCell><mxCell id="o0a1c7acb2b184df29db56654b7204af9243" parent="b9029b42b6414c108677233a3ecb4227" value="+ hashCode (): int" style="text;portConstraint=eastwest;overflow=hidden;rotatable=0;" vertex="1"><mxGeometry y="359.82617" width="391" height="19" as="geometry" /></mxCell><mxCell id="tvab4ab22cc5fd462f9da88c9f56bd9793" parent="b9029b42b6414c108677233a3ecb4227" value="{Annotation = Override&#xD;}" style="text;portConstraint=eastwest;overflow=hidden;rotatable=0;" vertex="1"><mxGeometry y="378.82617" width="391" height="19" as="geometry" /></mxCell><mxCell id="o05a24858c1f84938b066fd9bc16828f8243" parent="b9029b42b6414c108677233a3ecb4227" value="+ equals (object : Object): boolean" style="text;portConstraint=eastwest;overflow=hidden;rotatable=0;" vertex="1"><mxGeometry y="397.82617" width="391" height="19" as="geometry" /></mxCell><mxCell id="o98bfa1d0f232495abbe3cc99c83f2b5b243" parent="b9029b42b6414c108677233a3ecb4227" value="+ toString (): String" style="text;portConstraint=eastwest;overflow=hidden;rotatable=0;" vertex="1"><mxGeometry y="416.82617" width="391" height="19" as="geometry" /></mxCell><mxCell id="tv4f921218e6d0419784d8611da0491354" parent="b9029b42b6414c108677233a3ecb4227" value="{Annotation = Override&#xD;}" style="text;portConstraint=eastwest;overflow=hidden;rotatable=0;" vertex="1"><mxGeometry y="435.82617" width="391" height="19" as="geometry" /></mxCell><mxCell id="8713cf7e96794003a21de2fe48487d6b" parent="1" value="" style="startArrow=diamondThin;startFill=0;endArrow=none;endFill=0;html=1;strokeColor=#555555;strokeWidth=2;shadow=1;fillColor=#F2F2F2;swimlaneFillColor=#F2F2F2;" edge="1" source="ec5a7ddd709f48dda4b2d840145c8670" target="abbf837c4ca94729832c296eaaa148e9"><mxGeometry x="302" y="1291" width="81" height="335" as="geometry"><mxPoint x="342" y="1291" as="sourcePoint" /><mxPoint x="342" y="1625" as="targetPoint" /></mxGeometry></mxCell><mxCell id="ec5a7ddd709f48dda4b2d840145c8670" parent="1" value="Comentario" style="swimlane;childLayout=stackLayout;horizontal=1;horizontalStack=0;resizeParent=1;resizeParentMax=0;resizeLast=0;collapsible=1;html=1;strokeColor=#555555;strokeWidth=2;shadow=1;fillColor=#F2F2F2;swimlaneFillColor=#F2F2F2;" vertex="1"><mxGeometry x="165" y="574" width="354" height="717" as="geometry" /></mxCell><mxCell id="a2bdcd9cbcc5444bcbc64a6e925626503235" parent="ec5a7ddd709f48dda4b2d840145c8670" value="- serialVersionUID: long = 1L" style="text;portConstraint=eastwest;overflow=hidden;rotatable=0;" vertex="1"><mxGeometry y="30.826172" width="348" height="19" as="geometry" /></mxCell><mxCell id="a46d57c32b5694c06a69c3146651fc858235" parent="ec5a7ddd709f48dda4b2d840145c8670" value="- id: Integer" style="text;portConstraint=eastwest;overflow=hidden;rotatable=0;" vertex="1"><mxGeometry y="49.82617" width="348" height="19" as="geometry" /></mxCell><mxCell id="ad42d54b17ce644dcab47bfde79dd4c75235" parent="ec5a7ddd709f48dda4b2d840145c8670" value="- fechaHora: Date" style="text;portConstraint=eastwest;overflow=hidden;rotatable=0;" vertex="1"><mxGeometry y="68.82617" width="348" height="19" as="geometry" /></mxCell><mxCell id="a61e98e9d5263411e826e8e631adbdccc235" parent="ec5a7ddd709f48dda4b2d840145c8670" value="- contenido: String" style="text;portConstraint=eastwest;overflow=hidden;rotatable=0;" vertex="1"><mxGeometry y="87.82617" width="348" height="19" as="geometry" /></mxCell><mxCell id="a52b894af100b47c5a8ec3a7782a9270a236" parent="ec5a7ddd709f48dda4b2d840145c8670" value="- comentarioCollection: Collection&lt;Comentario&gt;" style="text;portConstraint=eastwest;overflow=hidden;rotatable=0;" vertex="1"><mxGeometry y="106.82617" width="348" height="19" as="geometry" /></mxCell><mxCell id="a9b46fdaeb1a04d9ab96cef23634d7f29236" parent="ec5a7ddd709f48dda4b2d840145c8670" value="- comentarioPadreId: Comentario" style="text;portConstraint=eastwest;overflow=hidden;rotatable=0;" vertex="1"><mxGeometry y="125.82617" width="348" height="19" as="geometry" /></mxCell><mxCell id="a511158d1447c4566b2ab96026ee64e44236" parent="ec5a7ddd709f48dda4b2d840145c8670" value="- postId: Post" style="text;portConstraint=eastwest;overflow=hidden;rotatable=0;" vertex="1"><mxGeometry y="144.82617" width="348" height="19" as="geometry" /></mxCell><mxCell id="af4b29779cbd84a2aa995c097a0d13119236" parent="ec5a7ddd709f48dda4b2d840145c8670" value="- usuarioId: Usuario" style="text;portConstraint=eastwest;overflow=hidden;rotatable=0;" vertex="1"><mxGeometry y="163.82617" width="348" height="19" as="geometry" /></mxCell><mxCell id="o2c1041792d2a4a6184666e1fc2d85d42236" parent="ec5a7ddd709f48dda4b2d840145c8670" value="+ «create» Comentario ()" style="text;portConstraint=eastwest;overflow=hidden;rotatable=0;" vertex="1"><mxGeometry y="188.82617" width="348" height="19" as="geometry" /></mxCell><mxCell id="o194d4328a2054fac970a615b877393ca236" parent="ec5a7ddd709f48dda4b2d840145c8670" value="+ «create» Comentario (fechaHora : Date, contenido : String, comentarioPadreId : Comentario, postId : Post, usuarioId : Usuario)" style="text;portConstraint=eastwest;overflow=hidden;rotatable=0;" vertex="1"><mxGeometry y="207.82617" width="348" height="54" as="geometry" /></mxCell><mxCell id="o28e3bc6eb0814f528876dbf9306d7499236" parent="ec5a7ddd709f48dda4b2d840145c8670" value="+ «create» Comentario (id : Integer)" style="text;portConstraint=eastwest;overflow=hidden;rotatable=0;" vertex="1"><mxGeometry y="261.82617" width="348" height="19" as="geometry" /></mxCell><mxCell id="o3f90eac4450e484f8d87135fdfa08c7d236" parent="ec5a7ddd709f48dda4b2d840145c8670" value="+ «create» Comentario (id : Integer, fechaHora : Date, contenido : String)" style="text;portConstraint=eastwest;overflow=hidden;rotatable=0;" vertex="1"><mxGeometry y="280.82617" width="348" height="37" as="geometry" /></mxCell><mxCell id="odcd36ba3f96a466ea7f2ea1af557c55f236" parent="ec5a7ddd709f48dda4b2d840145c8670" value="+ getId (): Integer" style="text;portConstraint=eastwest;overflow=hidden;rotatable=0;" vertex="1"><mxGeometry y="317.82617" width="348" height="19" as="geometry" /></mxCell><mxCell id="oe1770f83641649e5b83226764db3ff2a236" parent="ec5a7ddd709f48dda4b2d840145c8670" value="+ setId (id : Integer)" style="text;portConstraint=eastwest;overflow=hidden;rotatable=0;" vertex="1"><mxGeometry y="336.82617" width="348" height="19" as="geometry" /></mxCell><mxCell id="od2cfd380863e48768f530eb4a3c8a055236" parent="ec5a7ddd709f48dda4b2d840145c8670" value="+ getFechaHora (): Date" style="text;portConstraint=eastwest;overflow=hidden;rotatable=0;" vertex="1"><mxGeometry y="355.82617" width="348" height="19" as="geometry" /></mxCell><mxCell id="o271ea900072646c780b791ea1fdbb2d6236" parent="ec5a7ddd709f48dda4b2d840145c8670" value="+ setFechaHora (fechaHora : Date)" style="text;portConstraint=eastwest;overflow=hidden;rotatable=0;" vertex="1"><mxGeometry y="374.82617" width="348" height="19" as="geometry" /></mxCell><mxCell id="o1712c786b6cf4fc1ba3cd6d7982fc9e6236" parent="ec5a7ddd709f48dda4b2d840145c8670" value="+ getContenido (): String" style="text;portConstraint=eastwest;overflow=hidden;rotatable=0;" vertex="1"><mxGeometry y="393.82617" width="348" height="19" as="geometry" /></mxCell><mxCell id="oeaba1b97e5894853a13691235322687c236" parent="ec5a7ddd709f48dda4b2d840145c8670" value="+ setContenido (contenido : String)" style="text;portConstraint=eastwest;overflow=hidden;rotatable=0;" vertex="1"><mxGeometry y="412.82617" width="348" height="19" as="geometry" /></mxCell><mxCell id="oc7f558e270e846cbae45211c9396582e236" parent="ec5a7ddd709f48dda4b2d840145c8670" value="+ getComentarioCollection (): Collection&lt;Comentario&gt;" style="text;portConstraint=eastwest;overflow=hidden;rotatable=0;" vertex="1"><mxGeometry y="431.82617" width="348" height="19" as="geometry" /></mxCell><mxCell id="ofe2f624b09374514b8f0c016dd42841b236" parent="ec5a7ddd709f48dda4b2d840145c8670" value="+ setComentarioCollection (comentarioCollection : Collection&lt;Comentario&gt;)" style="text;portConstraint=eastwest;overflow=hidden;rotatable=0;" vertex="1"><mxGeometry y="450.82617" width="348" height="37" as="geometry" /></mxCell><mxCell id="o107471251c3d4ae9ae8d6e97227020be237" parent="ec5a7ddd709f48dda4b2d840145c8670" value="+ getComentarioPadreId (): Comentario" style="text;portConstraint=eastwest;overflow=hidden;rotatable=0;" vertex="1"><mxGeometry y="487.82617" width="348" height="19" as="geometry" /></mxCell><mxCell id="o77a5fb73208a4be1a05c76a995ee13d1237" parent="ec5a7ddd709f48dda4b2d840145c8670" value="+ setComentarioPadreId (comentarioPadreId : Comentario)" style="text;portConstraint=eastwest;overflow=hidden;rotatable=0;" vertex="1"><mxGeometry y="506.82617" width="348" height="37" as="geometry" /></mxCell><mxCell id="oeb6a92033f8b41a99d5458539254a51f237" parent="ec5a7ddd709f48dda4b2d840145c8670" value="+ getPostId (): Post" style="text;portConstraint=eastwest;overflow=hidden;rotatable=0;" vertex="1"><mxGeometry y="543.8262" width="348" height="19" as="geometry" /></mxCell><mxCell id="oa96527bdcd5d49859d9da369569ec4f7237" parent="ec5a7ddd709f48dda4b2d840145c8670" value="+ setPostId (postId : Post)" style="text;portConstraint=eastwest;overflow=hidden;rotatable=0;" vertex="1"><mxGeometry y="562.8262" width="348" height="19" as="geometry" /></mxCell><mxCell id="o01f0752a05b9441cbc7caf53474cdbf9237" parent="ec5a7ddd709f48dda4b2d840145c8670" value="+ getUsuarioId (): Usuario" style="text;portConstraint=eastwest;overflow=hidden;rotatable=0;" vertex="1"><mxGeometry y="581.8262" width="348" height="19" as="geometry" /></mxCell><mxCell id="oa734cdf0109a42bc9df295c0edbf1241237" parent="ec5a7ddd709f48dda4b2d840145c8670" value="+ setUsuarioId (usuarioId : Usuario)" style="text;portConstraint=eastwest;overflow=hidden;rotatable=0;" vertex="1"><mxGeometry y="600.8262" width="348" height="19" as="geometry" /></mxCell><mxCell id="o08f940a98c0e4b3baacd720c3d02357c237" parent="ec5a7ddd709f48dda4b2d840145c8670" value="+ hashCode (): int" style="text;portConstraint=eastwest;overflow=hidden;rotatable=0;" vertex="1"><mxGeometry y="619.8262" width="348" height="19" as="geometry" /></mxCell><mxCell id="tvacc4de3d88c74f02b9e5e2334d395653" parent="ec5a7ddd709f48dda4b2d840145c8670" value="{Annotation = Override&#xD;}" style="text;portConstraint=eastwest;overflow=hidden;rotatable=0;" vertex="1"><mxGeometry y="638.8262" width="348" height="19" as="geometry" /></mxCell><mxCell id="o29d633193ade4675b5ee6af80a067815237" parent="ec5a7ddd709f48dda4b2d840145c8670" value="+ equals (object : Object): boolean" style="text;portConstraint=eastwest;overflow=hidden;rotatable=0;" vertex="1"><mxGeometry y="657.8262" width="348" height="19" as="geometry" /></mxCell><mxCell id="o90546a44a97345c39882b99342c8b0a6237" parent="ec5a7ddd709f48dda4b2d840145c8670" value="+ toString (): String" style="text;portConstraint=eastwest;overflow=hidden;rotatable=0;" vertex="1"><mxGeometry y="676.8262" width="348" height="19" as="geometry" /></mxCell><mxCell id="tv8d41664759e6402b857b14dec304455d" parent="ec5a7ddd709f48dda4b2d840145c8670" value="{Annotation = Override&#xD;}" style="text;portConstraint=eastwest;overflow=hidden;rotatable=0;" vertex="1"><mxGeometry y="695.8262" width="348" height="19" as="geometry" /></mxCell></root></mxGraphModel></diagram><diagram id="pf0e45ed3e1234d798aa901f1b619dd98_858796406" name="ConexionSQL">﻿<mxGraphModel grid="1" gridSize="10" guides="1" tooltips="1" connect="1" arrows="1" shadow="1"><root><mxCell id="0" /><mxCell id="1" parent="0" /><mxCell id="a79eb54155dd45b78cbc43976af207c1" parent="1" value="" style="startArrow=diamondThin;startFill=0;endArrow=none;endFill=0;html=1;strokeColor=#555555;strokeWidth=2;shadow=1;fillColor=#F2F2F2;swimlaneFillColor=#F2F2F2;" edge="1" source="6850d86a8e1142cc997abc8a00de30d2" target="6850d86a8e1142cc997abc8a00de30d2"><mxGeometry x="-77" y="-50" width="118" height="91" as="geometry"><mxPoint x="40" y="0" as="sourcePoint" /><mxPoint x="0" y="40" as="targetPoint" /><Array as="points"><mxPoint x="40" y="-50" /><mxPoint x="-50" y="-50" /><mxPoint x="-50" y="40" /></Array></mxGeometry></mxCell><mxCell id="6850d86a8e1142cc997abc8a00de30d2" parent="1" value="ConexionDB" style="swimlane;childLayout=stackLayout;horizontal=1;horizontalStack=0;resizeParent=1;resizeParentMax=0;resizeLast=0;collapsible=1;html=1;strokeColor=#555555;strokeWidth=2;shadow=1;fillColor=#F2F2F2;swimlaneFillColor=#F2F2F2;" vertex="1"><mxGeometry x="0" y="0" width="284" height="191" as="geometry" /></mxCell><mxCell id="a658db527a0cd4e48bbbad38deddab132540" parent="6850d86a8e1142cc997abc8a00de30d2" value="- instancia: ConexionDB" style="text;portConstraint=eastwest;overflow=hidden;rotatable=0;" vertex="1"><mxGeometry y="30.826168" width="278" height="19" as="geometry" /></mxCell><mxCell id="a9c250478801b427ba6e4649154d50d96540" parent="6850d86a8e1142cc997abc8a00de30d2" value="- entityManagerFactory: EntityManagerFactory" style="text;portConstraint=eastwest;overflow=hidden;rotatable=0;" vertex="1"><mxGeometry y="49.826168" width="278" height="19" as="geometry" /></mxCell><mxCell id="adff3477d3c744702a2b2fca6149264db540" parent="6850d86a8e1142cc997abc8a00de30d2" value="- entityManager: EntityManager" style="text;portConstraint=eastwest;overflow=hidden;rotatable=0;" vertex="1"><mxGeometry y="68.82617" width="278" height="19" as="geometry" /></mxCell><mxCell id="o94a2aafc01f84338ae8f2141e9a2565e540" parent="6850d86a8e1142cc997abc8a00de30d2" value="- «create» ConexionDB ()" style="text;portConstraint=eastwest;overflow=hidden;rotatable=0;" vertex="1"><mxGeometry y="93.82617" width="278" height="19" as="geometry" /></mxCell><mxCell id="o4888dcc8f31f4369be6bab552699b12b540" parent="6850d86a8e1142cc997abc8a00de30d2" value="+ getInstancia (): ConexionDB" style="text;portConstraint=eastwest;overflow=hidden;rotatable=0;" vertex="1"><mxGeometry y="112.82617" width="278" height="19" as="geometry" /></mxCell><mxCell id="o98f5d0eebde3460690924df2e2098561540" parent="6850d86a8e1142cc997abc8a00de30d2" value="+ getEntityManager (): EntityManager" style="text;portConstraint=eastwest;overflow=hidden;rotatable=0;" vertex="1"><mxGeometry y="131.82617" width="278" height="19" as="geometry" /></mxCell><mxCell id="o04e435ca13154cc88bf94056cb0f7e0a541" parent="6850d86a8e1142cc997abc8a00de30d2" value="+ cerrarConexion ()" style="text;portConstraint=eastwest;overflow=hidden;rotatable=0;" vertex="1"><mxGeometry y="150.82617" width="278" height="19" as="geometry" /></mxCell><mxCell id="o121ca60d72264c5b974ba4ac74c55ea3541" parent="6850d86a8e1142cc997abc8a00de30d2" value="+ obtenerCriteriaBuilder (): CriteriaBuilder" style="text;portConstraint=eastwest;overflow=hidden;rotatable=0;" vertex="1"><mxGeometry y="169.82617" width="278" height="19" as="geometry" /></mxCell></root></mxGraphModel></diagram><diagram id="pd686abcd443a468f9305028f1de12081_944568671" name="DAOsSQL">﻿<mxGraphModel grid="1" gridSize="10" guides="1" tooltips="1" connect="1" arrows="1" shadow="1"><root><mxCell id="0" /><mxCell id="1" parent="0" /><mxCell id="890e9da835f744a2922bc23e9b4b0f81" parent="1" value="SerieDAO" style="swimlane;childLayout=stackLayout;horizontal=1;horizontalStack=0;resizeParent=1;resizeParentMax=0;resizeLast=0;collapsible=1;html=1;strokeColor=#555555;strokeWidth=2;shadow=1;fillColor=#F2F2F2;swimlaneFillColor=#F2F2F2;" vertex="1"><mxGeometry x="0" y="0" width="277" height="210" as="geometry" /></mxCell><mxCell id="a7b11d6f71af143c8b6b6973f3fb56d1f514" parent="890e9da835f744a2922bc23e9b4b0f81" value="- entityManager: EntityManager" style="text;portConstraint=eastwest;overflow=hidden;rotatable=0;" vertex="1"><mxGeometry y="30.826168" width="271" height="19" as="geometry" /></mxCell><mxCell id="a09bd7a85083848b99eda449429d2773d514" parent="890e9da835f744a2922bc23e9b4b0f81" value="- conexion: ConexionDB" style="text;portConstraint=eastwest;overflow=hidden;rotatable=0;" vertex="1"><mxGeometry y="49.826168" width="271" height="19" as="geometry" /></mxCell><mxCell id="o22ae6bf02ab94e8e9d82137961a2f195514" parent="890e9da835f744a2922bc23e9b4b0f81" value="+ «create» SerieDAO ()" style="text;portConstraint=eastwest;overflow=hidden;rotatable=0;" vertex="1"><mxGeometry y="74.82617" width="271" height="19" as="geometry" /></mxCell><mxCell id="o61d1f4e8e48946469cfc1a515a424a08514" parent="890e9da835f744a2922bc23e9b4b0f81" value="+ guardar (serie : Serie)" style="text;portConstraint=eastwest;overflow=hidden;rotatable=0;" vertex="1"><mxGeometry y="93.82617" width="271" height="19" as="geometry" /></mxCell><mxCell id="o21d03561e2e74377ba9a25502c6ed4ab514" parent="890e9da835f744a2922bc23e9b4b0f81" value="+ buscarTodas (): List&lt;Serie&gt;" style="text;portConstraint=eastwest;overflow=hidden;rotatable=0;" vertex="1"><mxGeometry y="112.82617" width="271" height="19" as="geometry" /></mxCell><mxCell id="ob0a18baaf8df472da829d0b7a2bddef6514" parent="890e9da835f744a2922bc23e9b4b0f81" value="+ buscarPorId (id : Integer): Serie" style="text;portConstraint=eastwest;overflow=hidden;rotatable=0;" vertex="1"><mxGeometry y="131.82617" width="271" height="19" as="geometry" /></mxCell><mxCell id="o631624bac98541d08811c9d25bfcc2d4514" parent="890e9da835f744a2922bc23e9b4b0f81" value="+ buscarPorTitulo (titulo : String): List&lt;Serie&gt;" style="text;portConstraint=eastwest;overflow=hidden;rotatable=0;" vertex="1"><mxGeometry y="150.82617" width="271" height="19" as="geometry" /></mxCell><mxCell id="o0ec0eb821ca54128a5a305ad2d5b1554514" parent="890e9da835f744a2922bc23e9b4b0f81" value="+ actualizar (serie : Serie)" style="text;portConstraint=eastwest;overflow=hidden;rotatable=0;" vertex="1"><mxGeometry y="169.82617" width="271" height="19" as="geometry" /></mxCell><mxCell id="oae0780066cd14d0ab6087a470c15ffbe514" parent="890e9da835f744a2922bc23e9b4b0f81" value="+ eliminar (id : Integer)" style="text;portConstraint=eastwest;overflow=hidden;rotatable=0;" vertex="1"><mxGeometry y="188.82617" width="271" height="19" as="geometry" /></mxCell><mxCell id="27dfa7ee4a7c4d129e5346b09a827db9" parent="1" value="AncladoDAO" style="swimlane;childLayout=stackLayout;horizontal=1;horizontalStack=0;resizeParent=1;resizeParentMax=0;resizeLast=0;collapsible=1;html=1;strokeColor=#555555;strokeWidth=2;shadow=1;fillColor=#F2F2F2;swimlaneFillColor=#F2F2F2;" vertex="1"><mxGeometry x="317" y="0" width="223" height="191" as="geometry" /></mxCell><mxCell id="a71c68089016f4a918852235b628c232a536" parent="27dfa7ee4a7c4d129e5346b09a827db9" value="- entityManager: EntityManager" style="text;portConstraint=eastwest;overflow=hidden;rotatable=0;" vertex="1"><mxGeometry y="30.826168" width="217" height="19" as="geometry" /></mxCell><mxCell id="ac013e45e63cc410480f76f1d96d74bf8536" parent="27dfa7ee4a7c4d129e5346b09a827db9" value="- conexion: ConexionDB" style="text;portConstraint=eastwest;overflow=hidden;rotatable=0;" vertex="1"><mxGeometry y="49.826168" width="217" height="19" as="geometry" /></mxCell><mxCell id="o44fae607fa4b4769a30f501ceb829c85536" parent="27dfa7ee4a7c4d129e5346b09a827db9" value="+ «create» AncladoDAO ()" style="text;portConstraint=eastwest;overflow=hidden;rotatable=0;" vertex="1"><mxGeometry y="74.82617" width="217" height="19" as="geometry" /></mxCell><mxCell id="oe561afaee6d047688a0e0956db8f29bd536" parent="27dfa7ee4a7c4d129e5346b09a827db9" value="+ guardar (anclado : Anclado)" style="text;portConstraint=eastwest;overflow=hidden;rotatable=0;" vertex="1"><mxGeometry y="93.82617" width="217" height="19" as="geometry" /></mxCell><mxCell id="o840aaabaa29b41df8a0c9876ca8af4c1536" parent="27dfa7ee4a7c4d129e5346b09a827db9" value="+ buscarTodos (): List&lt;Anclado&gt;" style="text;portConstraint=eastwest;overflow=hidden;rotatable=0;" vertex="1"><mxGeometry y="112.82617" width="217" height="19" as="geometry" /></mxCell><mxCell id="oc14ec27a39574115b33e3622b507d935536" parent="27dfa7ee4a7c4d129e5346b09a827db9" value="+ buscarPorId (id : Integer): Anclado" style="text;portConstraint=eastwest;overflow=hidden;rotatable=0;" vertex="1"><mxGeometry y="131.82617" width="217" height="19" as="geometry" /></mxCell><mxCell id="ob5517278b7e24bf89fbd1b7c6b884b16536" parent="27dfa7ee4a7c4d129e5346b09a827db9" value="+ actualizar (anclado : Anclado)" style="text;portConstraint=eastwest;overflow=hidden;rotatable=0;" vertex="1"><mxGeometry y="150.82617" width="217" height="19" as="geometry" /></mxCell><mxCell id="o36a161b53ff44e2faf6d984239a59afe536" parent="27dfa7ee4a7c4d129e5346b09a827db9" value="+ eliminar (id : Integer)" style="text;portConstraint=eastwest;overflow=hidden;rotatable=0;" vertex="1"><mxGeometry y="169.82617" width="217" height="19" as="geometry" /></mxCell><mxCell id="3eb67e46cab5477bbbdcbc46575e60b3" parent="1" value="ComunDAO" style="swimlane;childLayout=stackLayout;horizontal=1;horizontalStack=0;resizeParent=1;resizeParentMax=0;resizeLast=0;collapsible=1;html=1;strokeColor=#555555;strokeWidth=2;shadow=1;fillColor=#F2F2F2;swimlaneFillColor=#F2F2F2;" vertex="1"><mxGeometry x="317" y="211" width="218" height="191" as="geometry" /></mxCell><mxCell id="ac14e2f5713d1458b97e811e6ef6d7174538" parent="3eb67e46cab5477bbbdcbc46575e60b3" value="- entityManager: EntityManager" style="text;portConstraint=eastwest;overflow=hidden;rotatable=0;" vertex="1"><mxGeometry y="30.826172" width="212" height="19" as="geometry" /></mxCell><mxCell id="a15626480eab74625a4747d44c3fb8cce538" parent="3eb67e46cab5477bbbdcbc46575e60b3" value="- conexion: ConexionDB" style="text;portConstraint=eastwest;overflow=hidden;rotatable=0;" vertex="1"><mxGeometry y="49.82617" width="212" height="19" as="geometry" /></mxCell><mxCell id="oe47ff527ace245c6af59821fd099a892538" parent="3eb67e46cab5477bbbdcbc46575e60b3" value="+ «create» ComunDAO ()" style="text;portConstraint=eastwest;overflow=hidden;rotatable=0;" vertex="1"><mxGeometry y="74.82617" width="212" height="19" as="geometry" /></mxCell><mxCell id="oe689916549f1418ba1b1b9de504b2e56538" parent="3eb67e46cab5477bbbdcbc46575e60b3" value="+ guardar (comun : Comun)" style="text;portConstraint=eastwest;overflow=hidden;rotatable=0;" vertex="1"><mxGeometry y="93.82617" width="212" height="19" as="geometry" /></mxCell><mxCell id="o9bb3badb9c9c44efb1dead8adbcd796f538" parent="3eb67e46cab5477bbbdcbc46575e60b3" value="+ buscarTodos (): List&lt;Comun&gt;" style="text;portConstraint=eastwest;overflow=hidden;rotatable=0;" vertex="1"><mxGeometry y="112.82617" width="212" height="19" as="geometry" /></mxCell><mxCell id="oac13d2d576714e66abf03c89637aa126538" parent="3eb67e46cab5477bbbdcbc46575e60b3" value="+ buscarPorId (id : Integer): Comun" style="text;portConstraint=eastwest;overflow=hidden;rotatable=0;" vertex="1"><mxGeometry y="131.82617" width="212" height="19" as="geometry" /></mxCell><mxCell id="oea68870f1f544145ae9f8e00bc879b18538" parent="3eb67e46cab5477bbbdcbc46575e60b3" value="+ actualizar (comun : Comun)" style="text;portConstraint=eastwest;overflow=hidden;rotatable=0;" vertex="1"><mxGeometry y="150.82617" width="212" height="19" as="geometry" /></mxCell><mxCell id="oa89a7c3c891a4ffaaf708255e4b4715f538" parent="3eb67e46cab5477bbbdcbc46575e60b3" value="+ eliminar (id : Integer)" style="text;portConstraint=eastwest;overflow=hidden;rotatable=0;" vertex="1"><mxGeometry y="169.82617" width="212" height="19" as="geometry" /></mxCell><mxCell id="a8f6072fd9a24a3b9252021d84e29021" parent="1" value="AdminDAO" style="swimlane;childLayout=stackLayout;horizontal=1;horizontalStack=0;resizeParent=1;resizeParentMax=0;resizeLast=0;collapsible=1;html=1;strokeColor=#555555;strokeWidth=2;shadow=1;fillColor=#F2F2F2;swimlaneFillColor=#F2F2F2;" vertex="1"><mxGeometry x="0" y="422" width="214" height="191" as="geometry" /></mxCell><mxCell id="a9180c706b9e9402dbed5eb5335cc8c55539" parent="a8f6072fd9a24a3b9252021d84e29021" value="- entityManager: EntityManager" style="text;portConstraint=eastwest;overflow=hidden;rotatable=0;" vertex="1"><mxGeometry y="30.826172" width="208" height="19" as="geometry" /></mxCell><mxCell id="a4fc8abe0bfcb475ab9302299327cc84b539" parent="a8f6072fd9a24a3b9252021d84e29021" value="- conexion: ConexionDB" style="text;portConstraint=eastwest;overflow=hidden;rotatable=0;" vertex="1"><mxGeometry y="49.82617" width="208" height="19" as="geometry" /></mxCell><mxCell id="od446fda3eec549a4ac4a52ff02108606539" parent="a8f6072fd9a24a3b9252021d84e29021" value="+ «create» AdminDAO ()" style="text;portConstraint=eastwest;overflow=hidden;rotatable=0;" vertex="1"><mxGeometry y="74.82617" width="208" height="19" as="geometry" /></mxCell><mxCell id="o488cdee0a8bd4c37bdbea5384acb0099539" parent="a8f6072fd9a24a3b9252021d84e29021" value="+ guardar (admin : Admin)" style="text;portConstraint=eastwest;overflow=hidden;rotatable=0;" vertex="1"><mxGeometry y="93.82617" width="208" height="19" as="geometry" /></mxCell><mxCell id="o93a9327ca4a74b9b8f9df9fc1be12669539" parent="a8f6072fd9a24a3b9252021d84e29021" value="+ buscarTodos (): List&lt;Admin&gt;" style="text;portConstraint=eastwest;overflow=hidden;rotatable=0;" vertex="1"><mxGeometry y="112.82617" width="208" height="19" as="geometry" /></mxCell><mxCell id="o66c03939379d4f78b7043efd722535e3539" parent="a8f6072fd9a24a3b9252021d84e29021" value="+ buscarPorId (id : Integer): Admin" style="text;portConstraint=eastwest;overflow=hidden;rotatable=0;" vertex="1"><mxGeometry y="131.82617" width="208" height="19" as="geometry" /></mxCell><mxCell id="o81e3d6d1bab04de7a24c4c55ee65635a539" parent="a8f6072fd9a24a3b9252021d84e29021" value="+ actualizar (admin : Admin)" style="text;portConstraint=eastwest;overflow=hidden;rotatable=0;" vertex="1"><mxGeometry y="150.82617" width="208" height="19" as="geometry" /></mxCell><mxCell id="o7cd3cfb3525443bf9c65a1ecb72c273c540" parent="a8f6072fd9a24a3b9252021d84e29021" value="+ eliminar (id : Integer)" style="text;portConstraint=eastwest;overflow=hidden;rotatable=0;" vertex="1"><mxGeometry y="169.82617" width="208" height="19" as="geometry" /></mxCell><mxCell id="6bcc811ec2cb470ca6d937cd05450b82" parent="1" value="PostDAO" style="swimlane;childLayout=stackLayout;horizontal=1;horizontalStack=0;resizeParent=1;resizeParentMax=0;resizeLast=0;collapsible=1;html=1;strokeColor=#555555;strokeWidth=2;shadow=1;fillColor=#F2F2F2;swimlaneFillColor=#F2F2F2;" vertex="1"><mxGeometry x="580" y="0" width="273" height="210" as="geometry" /></mxCell><mxCell id="a1ab21ab35e274ef5bc3e4904094507aa531" parent="6bcc811ec2cb470ca6d937cd05450b82" value="- entityManager: EntityManager" style="text;portConstraint=eastwest;overflow=hidden;rotatable=0;" vertex="1"><mxGeometry y="30.826168" width="267" height="19" as="geometry" /></mxCell><mxCell id="a1ea20a41861043379a7d37c89ffd0335531" parent="6bcc811ec2cb470ca6d937cd05450b82" value="- conexion: ConexionDB" style="text;portConstraint=eastwest;overflow=hidden;rotatable=0;" vertex="1"><mxGeometry y="49.826168" width="267" height="19" as="geometry" /></mxCell><mxCell id="o5fe56a7012634f4abb210fa1d7bb9bff531" parent="6bcc811ec2cb470ca6d937cd05450b82" value="+ «create» PostDAO ()" style="text;portConstraint=eastwest;overflow=hidden;rotatable=0;" vertex="1"><mxGeometry y="74.82617" width="267" height="19" as="geometry" /></mxCell><mxCell id="o50b35cf0be52497cbd730197941a6777531" parent="6bcc811ec2cb470ca6d937cd05450b82" value="+ guardar (post : Post)" style="text;portConstraint=eastwest;overflow=hidden;rotatable=0;" vertex="1"><mxGeometry y="93.82617" width="267" height="19" as="geometry" /></mxCell><mxCell id="o29aa47fbacb74f4b9c9b5f64f1d10f10531" parent="6bcc811ec2cb470ca6d937cd05450b82" value="+ buscarTodos (): List&lt;Post&gt;" style="text;portConstraint=eastwest;overflow=hidden;rotatable=0;" vertex="1"><mxGeometry y="112.82617" width="267" height="19" as="geometry" /></mxCell><mxCell id="o1ff64eb8afb341a6acf212d9a65635b2531" parent="6bcc811ec2cb470ca6d937cd05450b82" value="+ buscarPorId (id : Integer): Post" style="text;portConstraint=eastwest;overflow=hidden;rotatable=0;" vertex="1"><mxGeometry y="131.82617" width="267" height="19" as="geometry" /></mxCell><mxCell id="o418c93028a69459c95f3a1d000252fe5531" parent="6bcc811ec2cb470ca6d937cd05450b82" value="+ buscarPorTitulo (titulo : String): List&lt;Post&gt;" style="text;portConstraint=eastwest;overflow=hidden;rotatable=0;" vertex="1"><mxGeometry y="150.82617" width="267" height="19" as="geometry" /></mxCell><mxCell id="o139e171892ac4a5c84c29e6a58117a13531" parent="6bcc811ec2cb470ca6d937cd05450b82" value="+ actualizar (post : Post)" style="text;portConstraint=eastwest;overflow=hidden;rotatable=0;" vertex="1"><mxGeometry y="169.82617" width="267" height="19" as="geometry" /></mxCell><mxCell id="o05a6e779c83d435aa84033bfe6b302a4531" parent="6bcc811ec2cb470ca6d937cd05450b82" value="+ eliminar (id : Integer)" style="text;portConstraint=eastwest;overflow=hidden;rotatable=0;" vertex="1"><mxGeometry y="188.82617" width="267" height="19" as="geometry" /></mxCell><mxCell id="0c86ae679a914473b7059bb5c8417c24" parent="1" value="UsuarioDAO" style="swimlane;childLayout=stackLayout;horizontal=1;horizontalStack=0;resizeParent=1;resizeParentMax=0;resizeLast=0;collapsible=1;html=1;strokeColor=#555555;strokeWidth=2;shadow=1;fillColor=#F2F2F2;swimlaneFillColor=#F2F2F2;" vertex="1"><mxGeometry x="254" y="422" width="324" height="210" as="geometry" /></mxCell><mxCell id="a6cb483b4b379419eb6adb32c5584695d534" parent="0c86ae679a914473b7059bb5c8417c24" value="- entityManager: EntityManager" style="text;portConstraint=eastwest;overflow=hidden;rotatable=0;" vertex="1"><mxGeometry y="30.826172" width="318" height="19" as="geometry" /></mxCell><mxCell id="acb30c0d382ea4f19b72cb5f08c83f2c7534" parent="0c86ae679a914473b7059bb5c8417c24" value="- conexion: ConexionDB" style="text;portConstraint=eastwest;overflow=hidden;rotatable=0;" vertex="1"><mxGeometry y="49.82617" width="318" height="19" as="geometry" /></mxCell><mxCell id="oa5129a5636034cb88546a8e135cfeaff534" parent="0c86ae679a914473b7059bb5c8417c24" value="+ «create» UsuarioDAO ()" style="text;portConstraint=eastwest;overflow=hidden;rotatable=0;" vertex="1"><mxGeometry y="74.82617" width="318" height="19" as="geometry" /></mxCell><mxCell id="o4141e41a968642d1a70cc4ace3d1022d534" parent="0c86ae679a914473b7059bb5c8417c24" value="+ guardar (usuario : Usuario)" style="text;portConstraint=eastwest;overflow=hidden;rotatable=0;" vertex="1"><mxGeometry y="93.82617" width="318" height="19" as="geometry" /></mxCell><mxCell id="o9bcbc5b655834366ae87476ba4cf48b5534" parent="0c86ae679a914473b7059bb5c8417c24" value="+ buscarTodos (): List&lt;Usuario&gt;" style="text;portConstraint=eastwest;overflow=hidden;rotatable=0;" vertex="1"><mxGeometry y="112.82617" width="318" height="19" as="geometry" /></mxCell><mxCell id="o76e4e15c595b4d77a2a0b6eb04740357534" parent="0c86ae679a914473b7059bb5c8417c24" value="+ buscarPorId (id : Integer): Usuario" style="text;portConstraint=eastwest;overflow=hidden;rotatable=0;" vertex="1"><mxGeometry y="131.82617" width="318" height="19" as="geometry" /></mxCell><mxCell id="o4d323528ead442bb99ea19a4523cc159534" parent="0c86ae679a914473b7059bb5c8417c24" value="+ buscarPorNombre (nombre : String): List&lt;Usuario&gt;" style="text;portConstraint=eastwest;overflow=hidden;rotatable=0;" vertex="1"><mxGeometry y="150.82617" width="318" height="19" as="geometry" /></mxCell><mxCell id="o99597a996f554350a25b6b76f014d67a534" parent="0c86ae679a914473b7059bb5c8417c24" value="+ actualizar (usuario : Usuario)" style="text;portConstraint=eastwest;overflow=hidden;rotatable=0;" vertex="1"><mxGeometry y="169.82617" width="318" height="19" as="geometry" /></mxCell><mxCell id="o8c14560f01b9476bb2c78870f5d91add534" parent="0c86ae679a914473b7059bb5c8417c24" value="+ eliminar (id : Integer)" style="text;portConstraint=eastwest;overflow=hidden;rotatable=0;" vertex="1"><mxGeometry y="188.82617" width="318" height="19" as="geometry" /></mxCell><mxCell id="439160304f704b2483a8d078088562d0" parent="1" value="MunicipioDAO" style="swimlane;childLayout=stackLayout;horizontal=1;horizontalStack=0;resizeParent=1;resizeParentMax=0;resizeLast=0;collapsible=1;html=1;strokeColor=#555555;strokeWidth=2;shadow=1;fillColor=#F2F2F2;swimlaneFillColor=#F2F2F2;" vertex="1"><mxGeometry x="618" y="422" width="337" height="210" as="geometry" /></mxCell><mxCell id="a8e132cb87ff944dda2658e6254ec3f0d533" parent="439160304f704b2483a8d078088562d0" value="- entityManager: EntityManager" style="text;portConstraint=eastwest;overflow=hidden;rotatable=0;" vertex="1"><mxGeometry y="30.826172" width="331" height="19" as="geometry" /></mxCell><mxCell id="ae6fc6738271748e2b6ce1e90981db533533" parent="439160304f704b2483a8d078088562d0" value="- conexion: ConexionDB" style="text;portConstraint=eastwest;overflow=hidden;rotatable=0;" vertex="1"><mxGeometry y="49.82617" width="331" height="19" as="geometry" /></mxCell><mxCell id="oa80bf635d0c24461a2781fe7b9548be8533" parent="439160304f704b2483a8d078088562d0" value="+ «create» MunicipioDAO ()" style="text;portConstraint=eastwest;overflow=hidden;rotatable=0;" vertex="1"><mxGeometry y="74.82617" width="331" height="19" as="geometry" /></mxCell><mxCell id="oc11d81bfe2dd4ca89684050c096a26ce533" parent="439160304f704b2483a8d078088562d0" value="+ guardar (municipio : Municipio)" style="text;portConstraint=eastwest;overflow=hidden;rotatable=0;" vertex="1"><mxGeometry y="93.82617" width="331" height="19" as="geometry" /></mxCell><mxCell id="o13646df2a1d34fbd8ef4ca5b826e362f533" parent="439160304f704b2483a8d078088562d0" value="+ buscarTodos (): List&lt;Municipio&gt;" style="text;portConstraint=eastwest;overflow=hidden;rotatable=0;" vertex="1"><mxGeometry y="112.82617" width="331" height="19" as="geometry" /></mxCell><mxCell id="ob63dced2e79c48719b944c365dc4c0f4533" parent="439160304f704b2483a8d078088562d0" value="+ buscarPorId (id : Integer): Municipio" style="text;portConstraint=eastwest;overflow=hidden;rotatable=0;" vertex="1"><mxGeometry y="131.82617" width="331" height="19" as="geometry" /></mxCell><mxCell id="o4e45e2dc732647f7823146b40a881572533" parent="439160304f704b2483a8d078088562d0" value="+ buscarPorNombre (nombre : String): List&lt;Municipio&gt;" style="text;portConstraint=eastwest;overflow=hidden;rotatable=0;" vertex="1"><mxGeometry y="150.82617" width="331" height="19" as="geometry" /></mxCell><mxCell id="o5745f3764d6449b4966c5df7a426bf7d533" parent="439160304f704b2483a8d078088562d0" value="+ actualizar (municipio : Municipio)" style="text;portConstraint=eastwest;overflow=hidden;rotatable=0;" vertex="1"><mxGeometry y="169.82617" width="331" height="19" as="geometry" /></mxCell><mxCell id="o2dd78743a67f4197ab235e58889e90fe533" parent="439160304f704b2483a8d078088562d0" value="+ eliminar (id : Integer)" style="text;portConstraint=eastwest;overflow=hidden;rotatable=0;" vertex="1"><mxGeometry y="188.82617" width="331" height="19" as="geometry" /></mxCell><mxCell id="c7f019c6357c4336b7e43fe7a764c7b2" parent="1" value="ComentarioDAO" style="swimlane;childLayout=stackLayout;horizontal=1;horizontalStack=0;resizeParent=1;resizeParentMax=0;resizeLast=0;collapsible=1;html=1;strokeColor=#555555;strokeWidth=2;shadow=1;fillColor=#F2F2F2;swimlaneFillColor=#F2F2F2;" vertex="1"><mxGeometry x="933" y="0" width="245" height="191" as="geometry" /></mxCell><mxCell id="a848eab2cd5884c8385c101295873817d535" parent="c7f019c6357c4336b7e43fe7a764c7b2" value="- entityManager: EntityManager" style="text;portConstraint=eastwest;overflow=hidden;rotatable=0;" vertex="1"><mxGeometry y="30.826168" width="239" height="19" as="geometry" /></mxCell><mxCell id="a71756a27517a4ba983ac5b9a53130307535" parent="c7f019c6357c4336b7e43fe7a764c7b2" value="- conexion: ConexionDB" style="text;portConstraint=eastwest;overflow=hidden;rotatable=0;" vertex="1"><mxGeometry y="49.826168" width="239" height="19" as="geometry" /></mxCell><mxCell id="o812c36283e2745f2bb050dddd49092e0535" parent="c7f019c6357c4336b7e43fe7a764c7b2" value="+ «create» ComentarioDAO ()" style="text;portConstraint=eastwest;overflow=hidden;rotatable=0;" vertex="1"><mxGeometry y="74.82617" width="239" height="19" as="geometry" /></mxCell><mxCell id="o1906d3d369b24ab78cea8df21d1c7bbe535" parent="c7f019c6357c4336b7e43fe7a764c7b2" value="+ guardar (comentario : Comentario)" style="text;portConstraint=eastwest;overflow=hidden;rotatable=0;" vertex="1"><mxGeometry y="93.82617" width="239" height="19" as="geometry" /></mxCell><mxCell id="ofa805c65096f44e1a639868ed4073188535" parent="c7f019c6357c4336b7e43fe7a764c7b2" value="+ buscarTodos (): List&lt;Comentario&gt;" style="text;portConstraint=eastwest;overflow=hidden;rotatable=0;" vertex="1"><mxGeometry y="112.82617" width="239" height="19" as="geometry" /></mxCell><mxCell id="oacb98a41718d4e458db5824ae4e41f24535" parent="c7f019c6357c4336b7e43fe7a764c7b2" value="+ buscarPorId (id : Integer): Comentario" style="text;portConstraint=eastwest;overflow=hidden;rotatable=0;" vertex="1"><mxGeometry y="131.82617" width="239" height="19" as="geometry" /></mxCell><mxCell id="of5684316f3994323872261c25734d16a535" parent="c7f019c6357c4336b7e43fe7a764c7b2" value="+ actualizar (comentario : Comentario)" style="text;portConstraint=eastwest;overflow=hidden;rotatable=0;" vertex="1"><mxGeometry y="150.82617" width="239" height="19" as="geometry" /></mxCell><mxCell id="o44a8aea3cfd44a5eade2c9db7022dd0f535" parent="c7f019c6357c4336b7e43fe7a764c7b2" value="+ eliminar (id : Integer)" style="text;portConstraint=eastwest;overflow=hidden;rotatable=0;" vertex="1"><mxGeometry y="169.82617" width="239" height="19" as="geometry" /></mxCell><mxCell id="f2e01f216e38462dbaf4a5d0d4eb9670" parent="1" value="NormalDAO" style="swimlane;childLayout=stackLayout;horizontal=1;horizontalStack=0;resizeParent=1;resizeParentMax=0;resizeLast=0;collapsible=1;html=1;strokeColor=#555555;strokeWidth=2;shadow=1;fillColor=#F2F2F2;swimlaneFillColor=#F2F2F2;" vertex="1"><mxGeometry x="928" y="211" width="219" height="191" as="geometry" /></mxCell><mxCell id="ab2716681839c40ffa07fad7874773a7c532" parent="f2e01f216e38462dbaf4a5d0d4eb9670" value="- entityManager: EntityManager" style="text;portConstraint=eastwest;overflow=hidden;rotatable=0;" vertex="1"><mxGeometry y="30.826172" width="213" height="19" as="geometry" /></mxCell><mxCell id="aecb00f2b525a46d4a77edcc5ad197d37532" parent="f2e01f216e38462dbaf4a5d0d4eb9670" value="- conexion: ConexionDB" style="text;portConstraint=eastwest;overflow=hidden;rotatable=0;" vertex="1"><mxGeometry y="49.82617" width="213" height="19" as="geometry" /></mxCell><mxCell id="o4d896fb23d9e433abd7d04619a3e8187532" parent="f2e01f216e38462dbaf4a5d0d4eb9670" value="+ «create» NormalDAO ()" style="text;portConstraint=eastwest;overflow=hidden;rotatable=0;" vertex="1"><mxGeometry y="74.82617" width="213" height="19" as="geometry" /></mxCell><mxCell id="o88f04302ed2b4eb3a9f6313e120ec6ef532" parent="f2e01f216e38462dbaf4a5d0d4eb9670" value="+ guardar (normal : Normal)" style="text;portConstraint=eastwest;overflow=hidden;rotatable=0;" vertex="1"><mxGeometry y="93.82617" width="213" height="19" as="geometry" /></mxCell><mxCell id="o50abe1b003b64082b33232677ec7ac6f532" parent="f2e01f216e38462dbaf4a5d0d4eb9670" value="+ buscarTodos (): List&lt;Normal&gt;" style="text;portConstraint=eastwest;overflow=hidden;rotatable=0;" vertex="1"><mxGeometry y="112.82617" width="213" height="19" as="geometry" /></mxCell><mxCell id="o661e079d2724491aa1d971ab5f3695fe532" parent="f2e01f216e38462dbaf4a5d0d4eb9670" value="+ buscarPorId (id : Integer): Normal" style="text;portConstraint=eastwest;overflow=hidden;rotatable=0;" vertex="1"><mxGeometry y="131.82617" width="213" height="19" as="geometry" /></mxCell><mxCell id="ob22759ce16354a8c895050c595d498c9532" parent="f2e01f216e38462dbaf4a5d0d4eb9670" value="+ actualizar (normal : Normal)" style="text;portConstraint=eastwest;overflow=hidden;rotatable=0;" vertex="1"><mxGeometry y="150.82617" width="213" height="19" as="geometry" /></mxCell><mxCell id="o61fbd34f7e38425a9335afdcf9ea9db4532" parent="f2e01f216e38462dbaf4a5d0d4eb9670" value="+ eliminar (id : Integer)" style="text;portConstraint=eastwest;overflow=hidden;rotatable=0;" vertex="1"><mxGeometry y="169.82617" width="213" height="19" as="geometry" /></mxCell><mxCell id="254e7322c4d44e048287a966766bacee" parent="1" value="EstadoDAO" style="swimlane;childLayout=stackLayout;horizontal=1;horizontalStack=0;resizeParent=1;resizeParentMax=0;resizeLast=0;collapsible=1;html=1;strokeColor=#555555;strokeWidth=2;shadow=1;fillColor=#F2F2F2;swimlaneFillColor=#F2F2F2;" vertex="1"><mxGeometry x="1035" y="422" width="320" height="210" as="geometry" /></mxCell><mxCell id="a148d14f516e84dadb070ccb25375319d537" parent="254e7322c4d44e048287a966766bacee" value="- entityManager: EntityManager" style="text;portConstraint=eastwest;overflow=hidden;rotatable=0;" vertex="1"><mxGeometry y="30.826172" width="314" height="19" as="geometry" /></mxCell><mxCell id="ae140c35cb88843d2a0c22c24a07fa5ce537" parent="254e7322c4d44e048287a966766bacee" value="- conexion: ConexionDB" style="text;portConstraint=eastwest;overflow=hidden;rotatable=0;" vertex="1"><mxGeometry y="49.82617" width="314" height="19" as="geometry" /></mxCell><mxCell id="od05c838cc4ff45d3bc915be028e857ee537" parent="254e7322c4d44e048287a966766bacee" value="+ «create» EstadoDAO ()" style="text;portConstraint=eastwest;overflow=hidden;rotatable=0;" vertex="1"><mxGeometry y="74.82617" width="314" height="19" as="geometry" /></mxCell><mxCell id="o4d124e0d743642a6bf0ccc42ae59765e537" parent="254e7322c4d44e048287a966766bacee" value="+ guardar (estado : Estado)" style="text;portConstraint=eastwest;overflow=hidden;rotatable=0;" vertex="1"><mxGeometry y="93.82617" width="314" height="19" as="geometry" /></mxCell><mxCell id="of4bae254779b408aba4c2e33fa78084e537" parent="254e7322c4d44e048287a966766bacee" value="+ buscarTodosLosEstados (): List&lt;Estado&gt;" style="text;portConstraint=eastwest;overflow=hidden;rotatable=0;" vertex="1"><mxGeometry y="112.82617" width="314" height="19" as="geometry" /></mxCell><mxCell id="o7b20a19886c94718a51cf4db9e98a2da537" parent="254e7322c4d44e048287a966766bacee" value="+ buscarEstadoPorId (id : Integer): Estado" style="text;portConstraint=eastwest;overflow=hidden;rotatable=0;" vertex="1"><mxGeometry y="131.82617" width="314" height="19" as="geometry" /></mxCell><mxCell id="o048cf292aeb74130b6aae2eb8f955c27537" parent="254e7322c4d44e048287a966766bacee" value="+ buscarEstadoPorNombre (nombre : String): Estado" style="text;portConstraint=eastwest;overflow=hidden;rotatable=0;" vertex="1"><mxGeometry y="150.82617" width="314" height="19" as="geometry" /></mxCell><mxCell id="of44a4063c3f8464783f33e94706e557c537" parent="254e7322c4d44e048287a966766bacee" value="+ actualizar (estado : Estado)" style="text;portConstraint=eastwest;overflow=hidden;rotatable=0;" vertex="1"><mxGeometry y="169.82617" width="314" height="19" as="geometry" /></mxCell><mxCell id="o58b0db52ad0e4a8dbbc11aa2873bf75d537" parent="254e7322c4d44e048287a966766bacee" value="+ eliminar (id : Integer)" style="text;portConstraint=eastwest;overflow=hidden;rotatable=0;" vertex="1"><mxGeometry y="188.82617" width="314" height="19" as="geometry" /></mxCell></root></mxGraphModel></diagram></mxfile>